<?xml version="1.0" encoding="UTF-8"?>
<svg id="_レイヤー_2" data-name="レイヤー 2" xmlns="http://www.w3.org/2000/svg" viewBox="0 0 241.8 93.55">
  <defs>
    <style>
      .cls-1 {
        fill: #e52e8e;
      }
    </style>
  </defs>
  <g id="img">
    <path class="cls-1" d="M102.94.44c-5.09,7.09-13.46,10.72-21.77,12.47-10.06,2.11-20.43,1.42-30.61,2.44-9.25.93-18.1,3.58-26.03,8.51-7.46,4.63-14,10.99-18.53,18.54S-1.19,59.17.52,67.99s7.46,15.05,14.73,19.22c8.44,4.84,18.26,6.13,27.84,6.3,11.04.2,22.13-.36,33.17-.61,21.68-.5,43.38-.84,65.06-1.53,17.55-.55,35.37-1.74,52.31-6.7,16.23-4.75,32.67-13.63,42.27-28.02,4.81-7.21,7.27-16.02,5.13-24.59-1-4-3.02-7.78-6.02-10.63s-6.94-4.78-10.97-5.93c-4.26-1.22-8.69-1.71-13.09-2.08-5.55-.47-11.12-.84-16.68-1.12-11.12-.57-22.26-.8-33.39-.67-11.13.13-22.26.6-33.37,1.43-5.51.41-11.01,1.02-16.52,1.47-4.41.36-10.16.11-12.32-4.54-.79-1.71-.6-3.61.78-4.93,1.26-1.21,3.08-1.7,4.55-.59,1.03.78,2.02-.96,1.01-1.73-2.76-2.09-6.75-.29-8.2,2.55-1.74,3.4.4,7.23,3.24,9.23,3.97,2.81,9.11,2.21,13.66,1.75,5.5-.55,11-1.02,16.52-1.4,22.05-1.53,44.2-1.68,66.26-.45,5.34.3,10.69.64,16.02,1.14,4.47.42,8.97,1.05,13.21,2.58s7.78,3.9,10.25,7.46,3.69,7.82,3.84,12.11c.31,9.18-4.45,17.56-10.56,24.07s-13.02,11.24-20.7,15.02c-15.59,7.68-33.16,10.43-50.34,11.71-8.99.67-18,.9-27.01,1.11-11.11.26-22.21.51-33.32.77-11.11.26-22.21.51-33.32.77s-21.57,1.1-32.16-.43c-8.82-1.27-17.63-4.6-23.81-11.26S.81,63.54,2.97,54.78c4.29-17.39,20.13-30.88,36.98-35.53,18.34-5.06,39.03.55,56-9.8,3.42-2.08,6.38-4.76,8.71-8.01.75-1.05-.98-2.05-1.73-1.01h0Z"/>
  </g>
</svg>