<?xml version="1.0" encoding="UTF-8"?>
<svg id="_レイヤー_2" data-name="レイヤー 2" xmlns="http://www.w3.org/2000/svg" viewBox="0 0 150 150">
  <defs>
    <style>
      .cls-1 {
        fill: #d6d6d6;
      }

      .cls-2 {
        fill: #ff7c01;
      }

      .cls-3 {
        fill: #e52e8e;
      }

      .cls-4 {
        fill: #271302;
      }
    </style>
  </defs>
  <g id="text">
    <g>
      <g>
        <path class="cls-3" d="M94.91,20.23c10.38,3.77,19.37,10.4,26.04,18.94l13.55-9.84c-8.74-11.35-20.65-20.13-34.42-25.01l-5.18,15.92Z"/>
        <path class="cls-3" d="M150,77h-16.75c-.38,11.32-3.98,21.82-9.93,30.61l13.55,9.83c7.96-11.56,12.74-25.45,13.13-40.45Z"/>
        <path class="cls-1" d="M0,73h16.75c.38-11.32,3.98-21.82,9.93-30.61l-13.55-9.83C5.18,44.11.39,58.01,0,73Z"/>
        <path class="cls-1" d="M26.68,107.61c-5.95-8.79-9.55-19.29-9.93-30.61H0c.39,14.99,5.18,28.89,13.13,40.45l13.55-9.83Z"/>
        <path class="cls-3" d="M123.32,42.39c5.95,8.79,9.55,19.29,9.93,30.61h16.75c-.39-14.99-5.18-28.89-13.13-40.45l-13.55,9.83Z"/>
        <path class="cls-3" d="M91.1,131c-5.12,1.47-10.51,2.27-16.1,2.27s-10.99-.8-16.1-2.27l-5.18,15.93c6.75,1.99,13.89,3.08,21.28,3.08s14.53-1.09,21.28-3.08l-5.18-15.93Z"/>
        <path class="cls-3" d="M120.95,110.84c-6.67,8.53-15.66,15.17-26.04,18.94l5.18,15.92c13.77-4.88,25.68-13.66,34.42-25.01l-13.55-9.84Z"/>
        <path class="cls-3" d="M58.9,19c5.12-1.47,10.51-2.27,16.1-2.27s10.99.8,16.1,2.27l5.18-15.93c-6.75-1.99-13.89-3.08-21.28-3.08s-14.53,1.09-21.28,3.08l5.18,15.93Z"/>
        <path class="cls-1" d="M29.05,39.16c6.67-8.53,15.66-15.17,26.04-18.94l-5.18-15.92c-13.77,4.88-25.68,13.66-34.42,25.01l13.55,9.84Z"/>
        <path class="cls-3" d="M55.09,129.77c-10.38-3.77-19.37-10.4-26.04-18.94l-13.55,9.84c8.74,11.35,20.65,20.13,34.42,25.01l5.18-15.92Z"/>
      </g>
      <g>
        <rect class="cls-4" x="50" y="50" width="50" height="50" rx="10" ry="10"/>
        <rect class="cls-4" x="52.31" y="52.39" width="45.37" height="45.23" rx="10" ry="10"/>
        <path class="cls-2" d="M67.52,79.2l-1.41,4.49c-.04.15-.17.25-.32.24h-3.41c-.21,0-.27-.12-.23-.3l5.88-17.48c.12-.33.23-.7.29-1.85,0-.11.07-.2.18-.21h4.7c.15,0,.21.03.23.18l6.67,19.39c.06.15.03.27-.15.27h-3.82c-.14.02-.28-.07-.33-.21l-1.5-4.51h-6.79ZM73.22,75.41c-.59-2-1.77-5.67-2.32-7.82h-.03c-.47,2.03-1.53,5.37-2.29,7.82h4.65Z"/>
        <path class="cls-2" d="M81.87,64.89c0-1.36.97-2.33,2.29-2.33,1.41,0,2.26.97,2.26,2.33s-.91,2.36-2.29,2.36-2.26-.94-2.26-2.36ZM82.07,69.11c0-.15.06-.24.23-.24h3.62c.18,0,.23.06.23.24v14.54c0,.18-.03.27-.26.27h-3.52c-.2,0-.29-.09-.29-.27v-14.54Z"/>
      </g>
    </g>
  </g>
</svg>