<?xml version="1.0" encoding="UTF-8"?>
<svg id="_レイヤー_2" data-name="レイヤー 2" xmlns="http://www.w3.org/2000/svg" viewBox="0 0 193.69 134.35">
  <defs>
    <style>
      .cls-1 {
        fill: #97cc15;
      }
    </style>
  </defs>
  <g id="img">
    <g>
      <path class="cls-1" d="M3.91,55.29c-2.66-6.44-3.38-15.44,3.19-19.89,3-2.03,6.8-2.2,10.2-3.12,3.13-.85,6.07-2.33,8.72-4.19,5.45-3.84,9.73-9.03,13.92-14.15,2.59-3.16,5.12-6.38,7.77-9.49,1.04-1.21,2.35-2.62,4.1-2.47,1.61.14,2.92,1.48,3.68,2.81,1.03,1.82,1.23,4.02,1.58,6.05.31,1.82.78,3.57,1.56,5.25,1.53,3.29,4.08,6.03,7.19,7.89,1.11.66,2.11-1.07,1.01-1.73-3.06-1.83-5.53-4.64-6.82-7.99s-.96-7.57-2.98-10.79c-1.61-2.56-4.63-4.35-7.61-3.02-1.49.66-2.58,1.92-3.59,3.15-1.46,1.77-2.9,3.54-4.35,5.32-4.69,5.73-9.24,11.85-15.11,16.45-2.86,2.24-6.08,4.04-9.6,4.99s-7.37,1.18-10.53,3.22c-7.5,4.86-7.32,14.86-4.27,22.25.48,1.17,2.42.66,1.93-.53h0Z"/>
      <path class="cls-1" d="M62.04,26.94c4.11.79,7.65-2.79,10.34-5.42,1.53-1.5,2.9-3.14,4.27-4.79,1.13-1.36,2.31-2.79,3.81-3.76,3.9-2.55,7.42.6,8.42,4.47.57,2.2.62,4.51.78,6.76.18,2.45.35,4.9.53,7.35.4,5.55.79,11.11,1.19,16.66.09,1.28,2.09,1.29,2,0-.37-5.23-.75-10.45-1.12-15.68-.19-2.61-.37-5.23-.56-7.84-.16-2.31-.24-4.65-.69-6.92-.71-3.59-3.07-7.42-7.07-7.77s-6.72,2.89-8.93,5.59c-1.67,2.03-3.4,3.98-5.35,5.75-1.83,1.65-4.37,4.18-7.07,3.66-1.26-.24-1.8,1.69-.53,1.93h0Z"/>
      <path class="cls-1" d="M5.8,60.92c10.84,10.47,23.57,19.26,37.94,24.07,7.38,2.47,15.88,4.6,23.5,1.99,6.71-2.3,11.94-7.49,16.23-12.96,5.2-6.61,10.31-14.01,11.35-22.56.16-1.27-1.85-1.26-2,0-.9,7.37-5.26,13.82-9.6,19.63-3.99,5.34-8.75,10.65-14.98,13.37-7.24,3.16-15.36,1.32-22.59-.96-6.83-2.14-13.32-5.25-19.4-9.02-6.89-4.27-13.21-9.37-19.03-14.99-.93-.89-2.34.52-1.41,1.41h0Z"/>
      <path class="cls-1" d="M17.45,35.42c4.54-1.12,8.34,3.4,10.84,6.55,2.63,3.33,4.33,7.65,1.13,11.21-2.71,3.02-7.05,4.74-10.86,5.82-1.62.46-4.99,1.74-6.39.34-1.11-1.11-1.47-2.73-2.75-3.74-1-.78-2.43.62-1.41,1.41,1.21.95,1.63,2.51,2.65,3.62,1.21,1.32,2.81,1.41,4.49,1.15,4.2-.65,8.39-2.12,12.04-4.32,3-1.81,5.73-4.47,6.03-8.14.33-4.01-2.37-7.59-4.91-10.4-2.92-3.25-6.68-6.61-11.4-5.44-1.25.31-.72,2.24.53,1.93h0Z"/>
      <path class="cls-1" d="M9.56,44.91c.74-.33,1.36-.9,1.81-1.57.14-.21.17-.54.1-.77s-.24-.48-.46-.6c-.23-.12-.51-.18-.77-.1s-.44.24-.6.46c-.55.8-.93,1.74-1.09,2.7-.05.18-.05.35,0,.53.05.17.13.32.26.44.24.24.64.37.97.26.66-.22,1.2-.64,1.57-1.23.32-.5.5-1.16.43-1.75l-.04-.27c-.03-.13-.09-.24-.18-.34-.14-.18-.3-.28-.52-.36-.36-.13-.78-.12-1.15-.03s-.71.3-1,.55-.48.58-.62.94-.14.78-.06,1.16c.13.6.95.95,1.47.6s.9-.85,1.03-1.46.07-1.25-.26-1.8c-.13-.22-.35-.39-.6-.46s-.56-.04-.77.1c-.45.29-.65.89-.36,1.37.03.06.06.12.09.18l-.1-.24c.04.1.07.21.09.32l-.04-.27c.02.13.02.26,0,.4l.04-.27c-.02.13-.05.26-.1.39l.1-.24c-.05.11-.11.22-.18.32l.16-.2c-.07.09-.14.17-.23.24l.2-.16s-.05.04-.08.06l1.47.6s-.01-.06-.02-.1l.04.27c0-.09,0-.17,0-.26l-.04.27c.01-.1.04-.19.07-.28l-.1.24c.05-.11.11-.21.18-.31l-.16.2c.08-.09.16-.18.26-.25l-.2.16c.09-.07.18-.12.28-.17l-.24.1c.1-.04.2-.07.31-.09l-.27.04c.1-.01.19-.01.29,0l-.27-.04c.08.01.15.03.22.06l-.73-.96c.02.15.02.3,0,.46l.04-.27c-.02.16-.07.32-.13.47l.1-.24c-.07.16-.16.31-.27.46l.16-.2c-.1.13-.22.25-.35.35l.2-.16c-.12.09-.25.17-.39.23l.24-.1s-.09.03-.13.05l1.23,1.23c.08-.48.21-.94.4-1.39l-.1.24c.16-.38.36-.74.59-1.07l-1.73-1.01c-.04.07-.09.13-.14.19l.16-.2c-.17.22-.37.42-.59.59l.2-.16c-.22.17-.46.31-.72.43-.21.09-.4.38-.46.6-.07.24-.04.56.1.77s.34.4.6.46l.27.04c.18,0,.35-.05.5-.14h0Z"/>
      <path class="cls-1" d="M19.63,46.7c0,1.13.58,2.32,1.6,2.86s2.36.4,3.23-.41.96-2.11.36-3.05c-.31-.49-.8-.9-1.38-1.02-.64-.13-1.31-.02-1.86.33-1.23.77-1.58,2.24-1.41,3.61.03.23.07.42.21.61.13.17.31.31.52.36.46.1.86-.08,1.13-.46.55-.78.97-1.67,1.25-2.58l-1.96-.27c-.04.49-.08.97-.12,1.46-.04.52.49,1.02,1,1,.58-.03.95-.44,1-1,.04-.49.08-.97.12-1.46.02-.23-.12-.55-.29-.71s-.35-.25-.57-.28c-.5-.07-.95.24-1.1.72-.06.21-.13.42-.21.62-.01.03-.08.2-.02.05s0,.01-.02.04c-.04.1-.09.2-.14.3-.19.38-.41.75-.66,1.1l1.86.5c-.05-.38-.06-.76-.01-1.14l-.04.27c.03-.22.09-.42.16-.63.03-.09-.11.23-.01.03.02-.04.04-.08.07-.13.03-.04.05-.08.08-.12.1-.15-.16.18-.03.05.06-.07.13-.13.19-.19.09-.08-.2.14-.07.05.04-.03.08-.06.12-.08s.09-.05.13-.07c.16-.09-.23.07-.06.03.09-.03.18-.05.28-.07l-.27.04c.13-.02.25-.02.38,0l-.27-.04c.08.01.15.04.23.06.13.03-.12-.04-.13-.05,0,.01.08.04.09.05.01,0,.08.06.08.06-.01,0-.2-.17-.11-.08.01.01.12.15.14.15-.01,0-.15-.21-.08-.1.02.03.04.06.05.09s.03.06.05.09c.06.11-.05-.11-.05-.13,0,.03.06.16.06.2.02.07.03.14.04.2l-.04-.27c.01.12.01.25,0,.37l.04-.27c-.01.08-.02.15-.05.22,0,.03-.02.06-.03.1.07-.25.08-.18.03-.09-.02.03-.04.06-.06.09-.09.16.06-.08.07-.08,0,.02-.15.16-.17.17-.07.06-.14.06.08-.06-.03.02-.06.04-.09.06-.03.02-.19.13-.21.11,0,0,.27-.1.09-.05-.04.01-.07.02-.11.03-.09.02-.17.04-.26.05l.27-.04c-.16.02-.33.02-.49,0l.27.04c-.1-.02-.19-.04-.28-.07-.02,0-.04-.01-.06-.02-.09-.04-.06-.02.12.05-.04-.03-.09-.04-.13-.07s-.08-.05-.12-.08c-.16-.1.18.16.05.04-.08-.07-.15-.14-.22-.22-.14-.16.09.14.03.05-.03-.05-.07-.09-.1-.14-.05-.08-.09-.18-.14-.26.14.23.06.15.03.06-.02-.05-.03-.09-.05-.14-.03-.11-.05-.22-.07-.34l.04.27c-.01-.11-.02-.23-.02-.34,0-.52-.46-1.02-1-1s-1,.44-1,1h0Z"/>
      <path class="cls-1" d="M22.74,48.89c1.29,0,1.29-2,0-2s-1.29,2,0,2h0Z"/>
      <path class="cls-1" d="M23,48.91c1.29,0,1.29-2,0-2s-1.29,2,0,2h0Z"/>
      <path class="cls-1" d="M22.3,47.41l-.08,1.05c0,.14.02.27.09.39.04.12.11.23.21.32.09.1.2.17.32.21.12.06.25.09.39.09l.27-.04c.17-.05.32-.13.44-.26l.16-.2c.09-.16.14-.32.14-.5l.08-1.05c0-.14-.02-.27-.09-.39-.04-.12-.11-.23-.21-.32-.09-.1-.2-.17-.32-.21-.12-.06-.25-.09-.39-.09l-.27.04c-.17.05-.32.13-.44.26l-.16.2c-.09.16-.14.32-.14.5h0Z"/>
      <path class="cls-1" d="M46.12,6.47c3.27.56,6.53,1.23,9.76,2.01,1.1.26,1.75-1.23.77-1.83-3.04-1.86-6.22-3.45-9.53-4.79l-.53,1.93c3.95.98,7.82,2.26,11.57,3.83.45.19,1.01-.17,1.18-.58.2-.49,0-.95-.41-1.25-2.23-1.59-4.46-3.18-6.7-4.77l-.77,1.83c.49.16.98.32,1.47.48,1.23.4,1.75-1.53.53-1.93-.49-.16-.98-.32-1.47-.48-1.14-.37-1.64,1.21-.77,1.83,2.23,1.59,4.46,3.18,6.7,4.77l.77-1.83c-3.76-1.56-7.62-2.84-11.57-3.83-1.28-.32-1.7,1.46-.53,1.93,3.14,1.27,6.16,2.82,9.05,4.58l.77-1.83c-3.23-.78-6.48-1.45-9.76-2.01-.53-.09-1.08.14-1.23.7-.13.48.16,1.14.7,1.23h0Z"/>
      <path class="cls-1" d="M79.13,16.85c1.29,0,1.29-2,0-2s-1.29,2,0,2h0Z"/>
      <path class="cls-1" d="M79.13,16.85c1.29,0,1.29-2,0-2s-1.29,2,0,2h0Z"/>
      <path class="cls-1" d="M77.61,15.94c1.72.7,2.86,2.38,4.49,3.25,2.21,1.19,4.9.54,7.28.33,1.07-.1,1.42-1.65.27-1.96-3.16-.86-6.04-2.51-8.39-4.8-.44-.43-1.26-.38-1.57.2-1.09,2.06,1.8,3.22,3.29,3.69,1.87.58,3.85.64,5.76.25.48-.1.79-.64.72-1.1-.08-.52-.47-.82-.98-.87-1.74-.17-3.36-1.42-3.98-3.06l-.7,1.23c.56-.1,1.1.66,1.36,1.05.3.44.86,1.26.74,1.84-.09.46-.92.22-1.27.11-.66-.2-1.24-.6-1.7-1.11s-.79-1.14-.91-1.82c-.05-.29-.02-.54,0-.82.01-.05.04-.1.07-.14-.11.16-.27.19-.48.11-.07-.08-.08-.07-.03.01.02.03.04.07.05.11.38,1.62.11,3.29-.99,4.59l1.57.2c-.9-1.49-1.1-3.38-.39-5,.22-.49.14-1.07-.36-1.37-.43-.25-1.15-.14-1.37.36-1.01,2.27-.91,4.87.39,7.01.31.51,1.14.71,1.57.2,1.47-1.73,2.12-4.08,1.56-6.31-.25-1.02-1.11-2.07-2.29-1.71-1.05.33-1.43,1.53-1.36,2.53.16,2.04,1.48,3.93,3.35,4.77.95.43,2.14.71,3.16.34,1.11-.41,1.53-1.53,1.36-2.63-.32-2.11-2.24-4.7-4.59-4.27-.5.09-.88.76-.7,1.23.96,2.53,3.22,4.25,5.91,4.52l-.27-1.96c-1.23.25-2.52.25-3.75,0-.59-.13-1.19-.3-1.75-.53-.29-.12-.58-.26-.85-.42-.1-.06-.2-.11-.29-.19-.27-.24.02-.18-.16.14l-1.57.2c2.59,2.53,5.78,4.36,9.27,5.32l.27-1.96c-1.28.12-2.56.26-3.84.35-1.05.07-1.95-.07-2.84-.64-1.59-1.02-2.77-2.48-4.56-3.21-.5-.2-1.1.22-1.23.7-.16.57.2,1.03.7,1.23h0Z"/>
      <path class="cls-1" d="M58.91,17.35l-1.49-.21v1.93c1.7-.52,3.45-.54,5.17-.05v-1.93c-3.84.55-7.68,1.11-11.52,1.66l.53,1.93c2.72-.64,5.52-.76,8.29-.41.54.07,1-.51,1-1,0-.6-.46-.93-1-1-2.95-.37-5.93-.19-8.82.48-.53.12-.84.72-.7,1.23.16.57.69.78,1.23.7,3.84-.55,7.68-1.11,11.52-1.66,1.03-.15.87-1.68,0-1.93-2.04-.59-4.2-.58-6.23.05-.86.26-1.04,1.78,0,1.93l1.49.21c.53.08,1.07-.13,1.23-.7.13-.47-.16-1.15-.7-1.23h0Z"/>
      <path class="cls-1" d="M60.32,18.24c-1.44.98-2.88,1.96-4.32,2.94l1.21,1.57c1-1.26,2.4-2.01,4.02-2.04l-.5-1.86c-3.64,2.16-7.34,4.23-11.08,6.21l1.37,1.37c.96-1.44,2.89-1.81,4.46-2.18,2.35-.55,4.7-1.1,7.05-1.64.68-.16,1.03-1.2.44-1.67-1.01-.81-2.15-1.24-3.46-1.17s-1.29,1.96,0,2c.66.02,1.33.04,1.97.18.3.06.59.14.87.25.13.05.76.54.82.53l.09-.45-.27.15c-.18.06-.37.2-.53.3-.35.2-.71.39-1.06.59-.8.44-1.6.89-2.39,1.33-1.02.57-.31,2.06.77,1.83,2.03-.43,4.06-.87,6.08-1.3,1.09-.23.87-2.06-.27-1.96-1.76.14-3.48.46-5.16.98l1.13,1.47c1.01-1.48,2.5-2.52,4.21-3.02l-1.23-1.23c-.24.85-.74,1.48-1.5,1.92l1.21,1.57c.05-.07.12-.11.2-.13l-1.23-1.23c-.19.7-.7,1.06-1.4,1.16l1.23,1.23.29-1c.36-1.24-1.57-1.77-1.93-.53l-.29,1c-.23.8.51,1.34,1.23,1.23,1.36-.2,2.43-1.25,2.79-2.56.19-.71-.49-1.48-1.23-1.23-.42.14-.76.34-1.09.65-.83.8.23,2.13,1.21,1.57,1.21-.68,2.05-1.78,2.42-3.11.2-.73-.5-1.44-1.23-1.23-2.23.64-4.1,2.02-5.41,3.94-.49.72.32,1.72,1.13,1.47,1.51-.47,3.05-.78,4.63-.91l-.27-1.96c-2.03.43-4.06.87-6.08,1.3l.77,1.83c1.15-.64,2.31-1.28,3.46-1.92.95-.53,2.11-1.13,1.58-2.44-.82-1.99-3.74-2.18-5.55-2.24v2c.74-.04,1.45.11,2.04.58l.44-1.67c-2.58.6-5.17,1.17-7.74,1.81-1.94.48-3.82,1.22-4.97,2.94-.59.88.54,1.81,1.37,1.37,3.74-1.98,7.44-4.05,11.08-6.21.84-.5.5-1.88-.5-1.86-2.11.03-4.12.97-5.44,2.62-.64.81.19,2.27,1.21,1.57,1.44-.98,2.88-1.96,4.32-2.94,1.06-.72.06-2.45-1.01-1.73h0Z"/>
      <path class="cls-1" d="M57.16,19.56c-.34.03-.68.02-1.03,0-.19-.01.06.02-.06,0-.08-.01-.15-.03-.23-.04-.17-.03-.34-.07-.5-.12-.15-.04-.3-.09-.44-.15-.06-.02-.19-.08-.06-.02-.08-.04-.17-.08-.25-.12-.14-.07-.27-.15-.41-.23-.08-.05-.16-.1-.23-.15-.03-.02-.24-.18-.1-.07l-.71,1.71c.47-.05.95-.08,1.43-.07.24,0,.48.02.71.03.1,0,.2.02.3.03.07,0,.14.02.2.02-.08-.01-.08-.01-.01,0,.45.08.9.17,1.35.29.23.07.46.14.68.22.1.03.19.07.29.11.06.02.13.05.19.08-.08-.03-.07-.03.04.02v-1.73c-.26.12.18-.05-.09.03-.07.02-.14.05-.21.07-.16.05-.31.08-.47.11.14-.03.05,0-.04,0-.07,0-.15,0-.22.01-.16,0-.32-.01-.49-.02s.23.05-.04,0c-.07-.01-.14-.03-.22-.04-.16-.04-.31-.09-.47-.14-.18-.06.05.04-.05-.02-.07-.03-.13-.06-.2-.1-.16-.08-.3-.18-.45-.28-.43-.31-1.13-.09-1.37.36-.27.52-.1,1.04.36,1.37,1.45,1.04,3.36,1.11,4.95.38.65-.3.66-1.44,0-1.73-1.94-.86-4.07-1.24-6.19-1-.41.05-.75.21-.91.61-.14.33-.1.85.21,1.09,1.34,1.06,3.01,1.65,4.73,1.5.52-.04,1.03-.43,1-1-.02-.5-.44-1.05-1-1h0Z"/>
      <path class="cls-1" d="M56.01,20.85c-1.17-.28-2.46-.08-3.46.6l1.21,1.57c.28-.32.59-.61.92-.87.09-.08-.19.14-.05.04.05-.03.09-.07.14-.1.08-.06.17-.12.26-.17.18-.12.37-.22.56-.32l-1.01-1.73c-1.16.71-2.14,1.71-2.81,2.9-.21.37-.17.91.16,1.21.13.12.28.2.44.26.21.07.58.04.77-.1,1.05-.79,2.15-1.52,3.29-2.17.45-.26.65-.92.36-1.37s-.88-.64-1.37-.36c-1.14.66-2.24,1.38-3.29,2.17l1.37,1.37c.14-.25.29-.49.46-.72.02-.02.04-.07.06-.09-.02.01-.14.18-.06.08.04-.06.09-.11.14-.16.1-.12.2-.23.3-.34.2-.2.41-.4.63-.57.03-.02.13-.1,0,0s-.02.02,0,0c.06-.04.11-.08.17-.12.12-.09.25-.17.38-.25.45-.27.65-.91.36-1.37s-.87-.62-1.37-.36c-.84.43-1.61,1.03-2.23,1.74-.33.38-.39.9-.08,1.31.29.37.88.54,1.29.26.18-.12.37-.23.57-.31l-.24.1c.28-.12.58-.2.88-.24l-.27.04c.31-.04.61-.04.92,0l-.27-.04c.11.02.21.04.32.06.51.12,1.11-.16,1.23-.7.12-.51-.15-1.1-.7-1.23h0Z"/>
      <path class="cls-1" d="M25.52,32.83c3.48,1.25,6.31,3.91,7.88,7.24.3.63,1.12.57,1.57.2,1.07-.88.96-2.45.28-3.53s-1.74-2.07-2.69-2.96c-1.97-1.85-4.19-3.44-6.58-4.72l-.77,1.83c4.49,1.44,8.46,4.14,11.5,7.74l1.21-1.57c-2.83-1.99-5.67-3.98-8.5-5.98-1.06-.74-2.06.99-1.01,1.73,2.83,1.99,5.67,3.98,8.5,5.98.4.28,1.01.11,1.29-.26.31-.42.25-.92-.08-1.31-3.26-3.85-7.59-6.71-12.39-8.25-1.07-.34-1.77,1.29-.77,1.83,1.94,1.03,3.77,2.27,5.42,3.72.82.72,1.6,1.48,2.33,2.28.4.44,1.54,1.48.83,2.06l1.57.2c-1.8-3.81-5.13-6.74-9.08-8.16-1.21-.44-1.74,1.49-.53,1.93h0Z"/>
      <path class="cls-1" d="M35.76,25.2c-.55.02-1.45.11-1.8-.42s.1-1.21.55-1.54c.63-.47,1.43-.71,2.18-.91.85-.23,1.72-.37,2.6-.37.69,0,1.45.09,1.99.56.25.22.73.85.49,1.22-.16.25-.83.35-1.09.44-.41.14-.83.26-1.26.37-.94.25-1.89.43-2.86.54-.54.06-1,.42-1,1,0,.49.46,1.06,1,1,1.08-.12,2.15-.3,3.21-.56.94-.24,1.99-.49,2.85-.95,1.88-1,1.24-3.55-.15-4.65-1.62-1.29-3.97-1.06-5.86-.63s-4.01,1.23-4.64,3.21c-.32,1.02-.02,2.21.8,2.92s1.94.83,3,.79c1.28-.05,1.29-2.05,0-2h0Z"/>
      <path class="cls-1" d="M37.96,22.48c-.13.1-.28.18-.43.25l.24-.1c-.17.07-.35.12-.53.15l.27-.04c-.18.02-.37.02-.55,0l.27.04c-.07-.01-.15-.02-.22-.04-.26-.06-.54-.03-.77.1-.21.12-.41.36-.46.6-.06.26-.05.54.1.77s.34.4.6.46c.48.12.95.12,1.43.02.23-.05.45-.14.66-.23.15-.07.29-.15.42-.25.12-.06.21-.15.28-.26.09-.1.15-.21.18-.34.07-.24.04-.56-.1-.77s-.34-.4-.6-.46-.56-.06-.77.1h0Z"/>
      <path class="cls-1" d="M38.87,22.59c-.77-.21-1.58-.31-2.37-.28-.26.01-.52.1-.71.29-.17.17-.3.46-.29.71s.1.53.29.71.44.3.71.29c.4-.02.8,0,1.2.06l-.27-.04c.3.04.61.1.9.19.25.07.55.03.77-.1.21-.12.41-.36.46-.6.06-.26.05-.54-.1-.77s-.34-.39-.6-.46h0Z"/>
      <path class="cls-1" d="M67.11,42.56c-2.14.15-4.25-.09-6.29-.76-.79-.26-2.04-.59-2.45-1.4-.37-.74.59-1.45,1.12-1.82,1.39-.99,3.14-1.37,4.81-1.51s3.5-.32,4.58,1.17c.52.72.83,1.62,1,2.49.03.16.05.3.03.32-.14.22-.54.4-.75.56-.52.38-1.03.76-1.55,1.14-.44.32-.65.86-.36,1.37.25.43.93.68,1.37.36.59-.43,1.17-.86,1.76-1.29.47-.35,1.05-.68,1.34-1.21.56-1.03-.04-2.56-.46-3.55s-1.09-1.96-2.02-2.6c-1.08-.75-2.41-.86-3.69-.82-2.33.07-4.8.41-6.8,1.68-.96.61-2.05,1.51-2.36,2.66-.36,1.29.36,2.54,1.4,3.27,1.23.86,2.88,1.3,4.33,1.61,1.65.34,3.33.46,5.01.34,1.28-.09,1.29-2.09,0-2h0Z"/>
      <path class="cls-1" d="M65.34,37.85c-.38-.03-.77-.05-1.15-.1l.27.04c-.06,0-.12-.02-.18-.05l.24.1s-.06-.03-.09-.05l.2.16s-.04-.03-.06-.05l.16.2s-.03-.04-.04-.06l.1.24s-.01-.04-.02-.07l.04.27s0-.06,0-.09l-.04.27s.01-.06.02-.09l-.1.24s.04-.07.06-.11l-.16.2s.04-.05.07-.07l-.2.16s.06-.04.09-.05l-.24.1s.08-.03.12-.03l-.27.04c.05,0,.1,0,.15,0l-.27-.04c.07.01.14.03.21.06l-.24-.1c.07.03.14.07.2.12l-.2-.16c.06.05.11.1.16.16l-.16-.2c.06.07.1.15.14.24l-.1-.24c.04.1.07.21.09.31l-.04-.27c.01.11.01.22,0,.33l.04-.27c-.01.09-.04.18-.07.27l.1-.24c-.03.08-.08.15-.13.22l.16-.2c-.05.06-.1.11-.15.15l.2-.16s-.08.06-.13.08l.24-.1s-.08.03-.13.04l.27-.04s-.08,0-.12,0l.27.04s-.1-.02-.14-.04l.24.1c-.06-.03-.11-.06-.15-.09l.2.16s-.09-.08-.13-.13l.16.2c-.04-.06-.08-.12-.11-.18l.1.24c-.03-.07-.05-.13-.06-.2l.04.27c0-.09,0-.18,0-.27l-.04.27c.02-.16.07-.31.13-.45l-.1.24c.06-.14.13-.27.19-.4l-1.57.2s.07.07.1.11l-.16-.2c.04.06.08.12.1.18l-.1-.24c.03.08.05.15.06.23l-.04-.27c0,.05,0,.1,0,.15,0,.25.12.53.29.71s.46.3.71.29c.56-.02.98-.44,1-1,0-.15-.02-.3-.05-.45-.01-.07-.03-.14-.06-.2-.11-.28-.24-.52-.46-.74s-.52-.32-.84-.28c-.3.04-.59.2-.73.48-.11.21-.21.43-.3.66s-.13.46-.16.7c-.06.52.15,1.02.49,1.4.38.43.99.61,1.54.47.07-.02.13-.05.2-.08.07-.03.14-.05.2-.09.13-.08.25-.17.35-.28.13-.14.25-.29.33-.46.16-.35.26-.73.22-1.12-.02-.2-.04-.39-.12-.57-.05-.12-.09-.24-.16-.35-.07-.12-.16-.23-.25-.34-.31-.39-.8-.59-1.28-.64-.14-.01-.29.01-.44.04s-.29.09-.41.17c-.29.19-.53.48-.62.82-.12.45,0,.9.3,1.25.07.08.17.15.26.21.03.02.06.04.09.05.14.06.27.12.42.15.47.07.95.09,1.42.13.24.02.54-.13.71-.29s.3-.46.29-.71-.1-.53-.29-.71l-.2-.16c-.16-.09-.32-.14-.5-.14h0Z"/>
      <path class="cls-1" d="M91.63,36.29c7.91,3.1,10.14,12.39,9.82,20.04-.17,4.15-1.46,7.89-4.89,10.44s-7.56,3.35-11.63,3.85c-1.26.16-1.28,2.16,0,2,6.72-.83,14.43-2.95,17.28-9.84,1.4-3.38,1.45-7.31,1.16-10.9-.3-3.7-1.21-7.41-3.15-10.6s-4.65-5.58-8.06-6.91c-1.2-.47-1.72,1.46-.53,1.93h0Z"/>
      <path class="cls-1" d="M92.45,30.16c3.18-4.73,9.05-6.32,14.21-7.88,6.36-1.93,12.27-5.01,18.61-6.98,6.83-2.13,14.03-2.65,21.15-2.5,6.2.13,12.44.69,18.44,2.29,5.66,1.51,11.14,3.98,15.52,7.93,4.29,3.87,7.24,8.93,8.98,14.41,3.71,11.62,2.57,24.54-.39,36.19-3.67,14.47-10.91,27.9-20.99,38.9-.87.95.54,2.37,1.41,1.41,9.35-10.21,16.34-22.43,20.36-35.68,3.68-12.11,5.38-25.61,2.44-38.06-1.36-5.78-3.85-11.32-7.74-15.85s-9.28-7.85-14.98-9.91-11.89-3.02-17.97-3.42c-7.24-.48-14.63-.36-21.77,1.08-8,1.62-15.15,5.68-22.92,8.05-5.94,1.81-12.44,3.57-16.1,9.01-.72,1.07,1.01,2.07,1.73,1.01h0Z"/>
      <path class="cls-1" d="M168.24,111.74c-1.48.04-2.8.53-4.15,1.09s-2.73,1.24-4.17.94c-2.57-.53-4.06-3.64-6.08-5.1-2.47-1.79-5.72-2.3-8.7-2.36-3.29-.07-6.57.57-9.45,2.21-1.12.64-.11,2.36,1.01,1.73,5.25-2.98,13.44-2.94,17.71,1.67,1.6,1.73,3.22,3.7,5.75,3.91,2.91.23,5.23-2.01,8.07-2.08,1.28-.03,1.29-2.03,0-2h0Z"/>
      <path class="cls-1" d="M135.58,108.72c-6.87,2.19-8.69,9.63-12.49,14.89-2.37,3.28-5.85,4.96-9.59,6.27-4,1.4-8.17,2.22-12.39,2.46-1.28.07-1.29,2.07,0,2,4.09-.24,8.15-.96,12.05-2.24,3.59-1.17,7.35-2.66,10-5.45,4.59-4.83,5.95-13.78,12.95-16.01,1.22-.39.7-2.32-.53-1.93h0Z"/>
      <path class="cls-1" d="M102.01,134.03c1.29,0,1.29-2,0-2s-1.29,2,0,2h0Z"/>
      <path class="cls-1" d="M102.6,132.08c-6.19-2.92-9.86-9.04-12.41-15.13-2.81-6.69-4.74-13.85-9.13-19.75-.76-1.02-2.5-.03-1.73,1.01,8.24,11.1,8.39,29.05,22.26,35.6,1.16.55,2.17-1.18,1.01-1.73h0Z"/>
      <path class="cls-1" d="M87.77,114.87c-3.17-.87-6.38-1.74-9.31-3.25s-5.18-3.54-7-6.14-3.08-5.3-4.2-8.15c-.62-1.58-1.2-3.17-1.75-4.77-.31-.9-.62-1.8-.92-2.7-.15-.45-.3-.9-.45-1.35-.07-.21-.21-.97-.32-.8l-.86.5h.14c-.29-.16-.58-.33-.86-.49l-.03-.24.73-.96-.1.04c-1.21.42-.69,2.35.53,1.93l.1-.04c.38-.13.78-.51.73-.96-.13-1.34-1.92-1.82-2.35-.35-.22.75.27,1.69.5,2.38.35,1.05.7,2.1,1.07,3.15,1.35,3.91,2.77,7.87,4.82,11.48,1.87,3.3,4.34,6.25,7.58,8.29,3.48,2.19,7.5,3.31,11.42,4.39,1.24.34,1.77-1.59.53-1.93h0Z"/>
      <path class="cls-1" d="M79.29,78.69c6.62,1.94,13.35,3.55,20.05,1.01,2.88-1.09,5.66-2.59,8.19-4.35,2.36-1.64,4.45-3.65,5.67-6.29,1.31-2.84,1.7-5.97,2.14-9.03s.85-6.3.75-9.48-.66-6.08-2-8.83-3.35-4.95-5.61-6.86c-4.62-3.91-11.42-8.05-17.49-4.85-1.14.6-.13,2.33,1.01,1.73,5.02-2.65,10.92,1.11,14.74,4.27,2.05,1.7,3.94,3.64,5.23,5.98s1.94,5.18,2.08,7.93-.12,5.65-.49,8.44-.7,5.66-1.58,8.34c-1.74,5.28-6.97,8.33-11.78,10.5-3.2,1.44-6.56,2.1-10.07,1.84s-6.95-1.28-10.32-2.27c-1.24-.36-1.77,1.57-.53,1.93h0Z"/>
      <path class="cls-1" d="M83.98,71.7c.08.83.07,1.65-.04,2.48-.05.43.35.86.73.96.46.13.87-.1,1.13-.46.64-.88,1.12-1.82,1.5-2.83.17-.46-.16-1.01-.58-1.18-.49-.2-.95,0-1.25.41-1.49,2.06-3.21,3.95-5.09,5.66l1.67.97c.15-.93.7-1.76,1.62-2.1l-1.27-.96c.04,1.4.07,2.8.11,4.2.02.98,1.35,1.37,1.86.5,1.55-2.63,3.11-5.26,4.66-7.89l-1.83-.77c-.38,2.14-.87,4.26-1.49,6.35-.36,1.24,1.57,1.77,1.93.53.82-2.79,2.01-5.43,3.55-7.9l-1.83-.77c-.45,2.65-.9,5.31-1.35,7.96-.08.49.09.98.58,1.18.43.17,1.03.04,1.25-.41.93-1.88,1.85-3.77,2.78-5.65l-1.83-.77c-.71,3.12-1.34,6.25-1.88,9.4-.21,1.25,1.56,1.79,1.93.53.93-3.16,1.76-6.35,2.49-9.56l-1.93-.53c-.43,2.91-.42,5.8.05,8.7.09.53.75.83,1.23.7.57-.16.78-.69.7-1.23-.4-2.52-.42-5.11-.05-7.64.08-.53-.13-1.07-.7-1.23-.5-.14-1.11.17-1.23.7-.73,3.21-1.56,6.4-2.49,9.56l1.93.53c.54-3.15,1.16-6.29,1.88-9.4.24-1.05-1.31-1.83-1.83-.77-.93,1.88-1.85,3.77-2.78,5.65l1.83.77c.45-2.65.9-5.31,1.35-7.96.18-1.08-1.2-1.78-1.83-.77-1.63,2.6-2.89,5.43-3.75,8.38l1.93.53c.61-2.09,1.11-4.21,1.49-6.35.19-1.07-1.22-1.8-1.83-.77-1.55,2.63-3.11,5.26-4.66,7.89l1.86.5c-.04-1.4-.07-2.8-.11-4.2-.02-.6-.63-1.19-1.27-.96-1.54.56-2.75,1.85-3.01,3.49-.16.97.89,1.68,1.67.97,2.01-1.83,3.81-3.86,5.4-6.07l-1.83-.77c-.32.84-.77,1.62-1.3,2.35l1.86.5c.1-.83.12-1.65.04-2.48-.05-.54-.42-1-1-1-.5,0-1.05.46-1,1h0Z"/>
      <path class="cls-1" d="M94.68,79.04c.78-2.89.48-5.86-.81-8.55-.44-.92-1.86-.44-1.86.5,0,3.13,1.28,6.12,3.57,8.25.53.49,1.49.32,1.67-.44.35-1.52.54-3.08.49-4.64-.04-1.19,0-2.94-.84-3.9-.71-.83-1.91-.87-2.78-.27-1,.69-1.17,2.04-.75,3.11.49,1.24,1.65,2.01,2.65,2.81.88.71,2.01,1.87,3.23,1.2,1.12-.61.84-1.97.45-2.93-.62-1.53-1.28-3.05-1.91-4.58-.48-1.15-2.36-.71-1.93.53,1.48,4.26,3.72,8.16,6.63,11.6.67.79,1.9-.06,1.67-.97-.99-3.86-2.12-7.68-3.39-11.46l-1.67.97c1.34,1.6,2.67,3.2,4.01,4.8.74.89,2.12-.25,1.57-1.21-1.67-2.91-3.33-5.81-5-8.72l-1.57,1.21c2.43,2.51,4.86,5.03,7.29,7.54.79.81,2.16-.23,1.57-1.21-.98-1.62-1.96-3.23-2.93-4.85l-1.37,1.37c.86.46,1.75.84,2.68,1.13s1.7-.99.97-1.67c-1.18-1.11-2.36-2.22-3.54-3.33l-1.21,1.57c3.27,1.63,6.44,3.44,9.51,5.43l1.01-1.73c-2.71-1.41-5.3-3.03-7.74-4.87-.79-.59-1.58.39-1.47,1.13.34,2.33,1.01,4.56,1.94,6.72l1.37-1.37c-.54-.3-.99-.66-1.34-1.18l-.86,1.5c.19-.05.35,0,.49.13,1.09.69,2.1-1.04,1.01-1.73-.47-.29-.95-.43-1.5-.4-.7.03-1.32.85-.86,1.5.55.8,1.21,1.43,2.06,1.9.94.52,1.75-.49,1.37-1.37-.86-1.99-1.43-4.09-1.74-6.24l-1.47,1.13c2.44,1.84,5.03,3.46,7.74,4.87,1.14.59,2.09-1.02,1.01-1.73-3.07-1.99-6.24-3.8-9.51-5.43-.97-.48-2.08.75-1.21,1.57,1.18,1.11,2.36,2.22,3.54,3.33l.97-1.67c-.77-.24-1.49-.54-2.2-.92-.86-.46-1.9.48-1.37,1.37.98,1.62,1.96,3.23,2.93,4.85l1.57-1.21c-2.43-2.51-4.86-5.03-7.29-7.54-.79-.82-2.13.23-1.57,1.21,1.67,2.91,3.33,5.81,5,8.72l1.57-1.21c-1.34-1.6-2.67-3.2-4.01-4.8-.64-.77-1.98.05-1.67.97,1.27,3.78,2.4,7.6,3.39,11.46l1.67-.97c-2.68-3.16-4.76-6.8-6.12-10.72l-1.93.53c.64,1.53,1.29,3.05,1.91,4.58,0-.01.28.79.29.79.35-.23.33-.41-.05-.55-.19-.15-.39-.31-.58-.46-.55-.44-1.12-.86-1.63-1.35-.19-.19-1.13-1.36-.49-1.55.25-.08.36,1.48.37,1.69.14,1.68,0,3.35-.37,4.99l1.67-.44c-1.91-1.79-2.98-4.22-2.98-6.84l-1.86.5c1.05,2.2,1.24,4.67.61,7.01-.34,1.24,1.59,1.77,1.93.53h0Z"/>
      <path class="cls-1" d="M93.55,27.99c-.91,1.17-1.58,2.5-1.88,3.97-.08.38-.13.76-.17,1.15-.04.43-.11.93.14,1.31.43.66,1.41.71,1.84,0,.2-.32.21-.75.02-1.08-.2-.36-.52-.48-.91-.52-.52-.06-1.02.5-1,1,.03.59.44.94,1,1h.03c-.29-.16-.58-.33-.86-.49v.03c-.03-.17-.08-.34-.12-.5v.04c.04-.17.09-.34.13-.5l.11-.14.71-.29h-.04c.17.05.34.09.5.14l-.05-.03.36.36c.07.35.1.43.09.23,0-.06,0-.12,0-.18,0-.12.02-.24.03-.35,0-.02.04-.32,0-.09.02-.12.04-.23.06-.35.08-.42.19-.84.33-1.25.03-.1.07-.2.11-.29.02-.06.04-.11.07-.17-.04.1-.04.1,0,0,.09-.19.18-.38.28-.56s.2-.36.32-.54c.06-.1.13-.2.2-.3.02-.03.24-.32.11-.16.17-.22.29-.42.29-.71,0-.25-.11-.54-.29-.71-.36-.33-1.07-.44-1.41,0h0Z"/>
      <path class="cls-1" d="M93.47,34.14c1.16-.54,2.32-1.08,3.48-1.63l-1.01-1.73c-.99.49-1.99,1.01-2.78,1.79s-1.3,1.8-1.37,2.93c-.05.75.89,1.26,1.5.86,2.23-1.44,4.51-2.79,6.85-4.04l-1.21-1.57c-.77.72-1.9,1.15-2.82,1.78-.98.68-1.9,1.62-2.1,2.84-.07.4.01.79.36,1.05.3.22.78.31,1.11.08.91-.64,1.82-1.28,2.73-1.93l-1.01-1.73c-.66.5-1.32.99-1.98,1.49-.43.32-.65.86-.36,1.37.25.43.93.68,1.37.36.66-.5,1.32-.99,1.98-1.49.43-.32.65-.86.36-1.37-.26-.44-.92-.67-1.37-.36-.91.64-1.82,1.28-2.73,1.93l1.47,1.13c.02-.14.06-.27.09-.4.05-.19-.03.02.06-.14.12-.21.23-.39.31-.47.17-.18.34-.35.54-.51-.08.07.19-.14.22-.16.1-.07.21-.14.31-.2.98-.6,2.02-1.06,2.87-1.86s-.23-2.1-1.21-1.57c-2.34,1.26-4.62,2.6-6.85,4.04l1.5.86c.01-.2.13-.6.25-.81.05-.09.11-.18.17-.28.15-.24-.08.07.11-.14.13-.15.27-.29.41-.43.61-.55,1.45-.95,2.22-1.33.48-.24.62-.93.36-1.37-.29-.5-.88-.59-1.37-.36-1.16.54-2.32,1.08-3.48,1.63-.49.23-.61.93-.36,1.37.29.5.88.59,1.37.36h0Z"/>
      <path class="cls-1" d="M97.46,30.7c-.7,1.22-1.45,2.41-2.27,3.55-.54.76.35,1.65,1.13,1.47,1.62-.37,3.25-.75,4.87-1.12l-1.13-1.47c-.59,1.09-1.42,1.94-2.51,2.54-.96.53-.3,2.27.77,1.83l4.47-1.84c.5-.21.85-.66.7-1.23-.13-.48-.72-.89-1.23-.7-1.96.75-3.72,1.85-5.22,3.33l1.57,1.21c.58-1.18,1.88-1.65,3.04-2.07l-.97-1.67c-1.25.99-2.59,1.85-3.99,2.6l1.01,1.73c1.91-1.19,3.95-2.09,6.12-2.7,1.07-.3.88-1.98-.27-1.96-3.03.04-5.44,2.01-7.56,3.97-.83.77.25,2.18,1.21,1.57,2.79-1.77,6.04-2.58,9.33-2.34l-.27-1.96c-2.59.54-4.75,2.09-6.83,3.64-.43.32-.65.86-.36,1.37.27.47.9.63,1.37.36,2.24-1.29,4.74-2.1,7.32-2.32l-.5-1.86c-1.94,1.17-3.81,2.43-5.61,3.81-.43.33-.66.86-.36,1.37.26.44.92.67,1.37.36,1.42-.97,3.02-1.53,4.74-1.57l-.5-1.86c-2.42,1.52-5.51,1.11-8.18,1.84l.53,1.93c1.45-.43,2.94-.71,4.45-.81.73-.05,1.45-.05,2.18-.02s1.36-.02,1.95-.53c.97-.85-.45-2.26-1.41-1.41.08-.07-.45-.05-.54-.06-.33-.01-.65-.02-.98-.02-.69,0-1.38.04-2.07.11-1.39.15-2.77.41-4.11.81-1.23.36-.72,2.27.53,1.93,2.88-.78,6.04-.39,8.66-2.04.81-.51.52-1.89-.5-1.86-2.06.06-4.06.68-5.75,1.85l1.01,1.73c1.8-1.37,3.67-2.64,5.61-3.81.8-.48.53-1.95-.5-1.86-2.94.25-5.77,1.12-8.33,2.6l1.01,1.73c1.94-1.45,3.93-2.94,6.35-3.44,1.16-.24.8-1.89-.27-1.96-3.62-.26-7.28.67-10.34,2.62l1.21,1.57c1.71-1.58,3.69-3.35,6.15-3.38l-.27-1.96c-2.32.65-4.55,1.62-6.6,2.9-1.09.68-.13,2.34,1.01,1.73,1.56-.84,3.01-1.82,4.4-2.92.78-.62-.06-2-.97-1.67-1.64.6-3.41,1.33-4.24,2.99-.49.99.73,2.04,1.57,1.21,1.24-1.22,2.71-2.19,4.34-2.81l-.53-1.93-4.47,1.84.77,1.83c1.36-.75,2.48-1.88,3.22-3.25.42-.78-.27-1.67-1.13-1.47-1.62.37-3.25.75-4.87,1.12l1.13,1.47c.82-1.15,1.58-2.33,2.27-3.55.64-1.12-1.09-2.13-1.73-1.01h0Z"/>
      <path class="cls-1" d="M108.69,39.95c-2.03,1.14-4.17,1.92-6.45,2.39l.53,1.93c3.01-.99,6.12-.99,9.13,0l-.24-1.83c-2.24,1.19-4.61,1.97-7.11,2.4l.53,1.93c2.59-.51,5.19-.47,7.76.11l-.24-1.83c-1.29.85-2.8.71-4.27.71-1.38,0-2.67.14-3.93.73-.88.42-.47,1.95.5,1.86,2.23-.19,4.36.06,6.49.76v-1.93c-2.79.81-5.59,1.62-8.38,2.43-1.06.31-.89,2,.27,1.96,3.04-.09,5.99.5,8.74,1.8l.5-1.86c-2.41.18-4.81.12-7.2-.24-1.24-.19-1.8,1.55-.53,1.93,2.12.64,4.09,1.52,5.98,2.68l.5-1.86c-2.08.14-4.07-.11-6.05-.76l-.53,1.93c2.64.81,5.03,2.14,7.09,3.98l.97-1.67c-2.77-.63-5.56-1.1-8.38-1.44-1.04-.12-1.28,1.39-.5,1.86,3.16,1.96,6.08,4.23,8.76,6.82l.71-1.71c-2.85-.36-5.55-1.53-7.77-3.36l-1.21,1.57c1.97,1.17,3.73,2.6,5.29,4.28l.71-1.71c-2.06.26-3.92-.21-5.6-1.43l-1.01,1.73c1.63.7,3.02,1.68,4.21,2.99l.97-1.67c-1.18-.17-2.19-.59-3.08-1.39-.96-.86-2.38.55-1.41,1.41,1.14,1.02,2.44,1.68,3.96,1.9.96.14,1.7-.88.97-1.67-1.3-1.42-2.85-2.54-4.62-3.3-1.18-.51-2.06.96-1.01,1.73,1.92,1.4,4.26,2,6.61,1.7.84-.11,1.34-1.02.71-1.71-1.67-1.8-3.58-3.33-5.7-4.59-.95-.56-2.11.83-1.21,1.57,2.67,2.2,5.75,3.51,9.18,3.94.89.11,1.28-1.15.71-1.71-2.79-2.7-5.86-5.09-9.16-7.13l-.5,1.86c2.64.32,5.25.78,7.85,1.37.91.21,1.76-.97.97-1.67-2.32-2.06-5-3.58-7.97-4.49-1.24-.38-1.75,1.53-.53,1.93,2.14.7,4.34.98,6.58.83.97-.07,1.38-1.33.5-1.86-2.03-1.24-4.18-2.2-6.46-2.88l-.53,1.93c2.57.38,5.14.5,7.74.31.9-.07,1.48-1.4.5-1.86-3.07-1.46-6.35-2.18-9.75-2.08l.27,1.96c2.79-.81,5.59-1.62,8.38-2.43.98-.28.92-1.62,0-1.93-2.27-.75-4.63-1.04-7.02-.84l.5,1.86c2.61-1.23,5.66.23,8.2-1.45.68-.45.65-1.63-.24-1.83-2.93-.67-5.88-.7-8.82-.11-1.27.25-.72,2.14.53,1.93,2.66-.45,5.2-1.34,7.59-2.6.8-.42.54-1.57-.24-1.83-3.33-1.09-6.87-1.08-10.2,0-1.23.4-.73,2.19.53,1.93,2.44-.5,4.76-1.38,6.93-2.59,1.12-.63.12-2.36-1.01-1.73h0Z"/>
      <path class="cls-1" d="M100.46,60.35c-4.33.64-7.77,3.61-11.89,4.86-1.23.37-.7,2.3.53,1.93,4.11-1.25,7.58-4.23,11.89-4.86.53-.08.83-.76.7-1.23-.16-.57-.69-.78-1.23-.7h0Z"/>
      <path class="cls-1" d="M112.89,25.37c1.66,3.65,4.46,6.6,7.53,9.1,1.53,1.24,3.11,2.47,4.78,3.53,1.51.96,3.71,1.95,5.47,1.05s2.28-3.14,2.2-4.89c-.09-1.95-.85-3.82-1.89-5.44-1.97-3.05-4.92-5.36-8.29-6.68-2.92-1.14-8.85-2.4-10.59,1.27-.55,1.16,1.18,2.17,1.73,1.01s1.98-1.39,3.18-1.39c1.49,0,2.97.29,4.38.76,2.8.93,5.33,2.71,7.15,5.03.96,1.23,1.75,2.63,2.13,4.14.3,1.2.47,3.52-.78,4.33-1.35.87-3.55-.81-4.59-1.55-1.34-.94-2.65-1.92-3.91-2.97-2.78-2.32-5.25-4.99-6.76-8.32-.53-1.17-2.26-.15-1.73,1.01h0Z"/>
      <path class="cls-1" d="M131.96,22.2c1.88,3.22,4.72,5.91,8.11,7.49,1.7.79,3.75,1.35,5.45.25,1.42-.92,2.07-2.58,2.27-4.19.43-3.57-1.26-7.51-3.97-9.83s-7-3.55-10.4-2.01c-.85.38-1.61,1-2.05,1.83-.54,1.02-.51,2.17-.35,3.28.34,2.48.96,4.94,1.72,7.33.39,1.22,2.32.7,1.93-.53-.54-1.69-.99-3.42-1.34-5.16-.27-1.36-.98-3.52.31-4.57,1.06-.86,2.69-.92,3.98-.8,1.48.14,2.92.71,4.15,1.54,2.48,1.69,4.01,4.73,4.09,7.7.03,1.14-.17,2.47-.97,3.35-1.05,1.14-2.69.6-3.9.03-3.05-1.46-5.59-3.81-7.29-6.73-.65-1.11-2.38-.11-1.73,1.01h0Z"/>
      <path class="cls-1" d="M150.26,95.22c-2.67-.34-4.76-2.32-6.3-4.39s-2.9-4.58-3.63-7.15-.89-5.48.43-7.86c1.05-1.9,2.92-3.48,5.07-3.93,5.62-1.16,8.24,6.4,8.78,10.67.59,4.73.29,11-2.84,14.88s-9.64,3.77-12.55-.39c-.73-1.05-2.47-.05-1.73,1.01,2.99,4.26,9.4,5.66,13.75,2.6,5.08-3.57,5.89-11.15,5.49-16.84-.38-5.37-2.97-13.81-9.57-14.04-2.69-.1-5.32,1.4-7.01,3.42-1.89,2.27-2.59,5.17-2.3,8.09.37,3.75,2.08,7.37,4.27,10.39,2.02,2.79,4.62,5.09,8.14,5.53,1.27.16,1.26-1.84,0-2h0Z"/>
      <path class="cls-1" d="M175.63,70.46c-2.75-.09-5.66-.2-8.2-1.37-2.41-1.11-4.13-3.16-5.16-5.56-1.15-2.69-1.37-5.65-1.3-8.54.06-2.54.11-5.44,1.36-7.74,1.43-2.64,4.33-3.04,7.06-3.28s5.77-.22,8.04,1.58c4.6,3.63,3.9,10.24,2.4,15.18s-3.66,11.65-8.96,13.84c-1.17.48-.66,2.42.53,1.93,5.64-2.32,8.05-8.28,9.86-13.68,1.96-5.84,3.09-13.08-1.64-17.97-2.19-2.27-5.23-3.03-8.31-2.99s-6.66.27-9.04,2.29c-2.17,1.85-2.83,4.78-3.11,7.48-.35,3.43-.39,7.04.49,10.4.83,3.17,2.61,6.18,5.37,8.02,3.1,2.07,6.99,2.3,10.6,2.42,1.29.04,1.29-1.96,0-2h0Z"/>
    </g>
  </g>
</svg>