<?xml version="1.0" encoding="UTF-8"?>
<svg id="_レイヤー_2" data-name="レイヤー 2" xmlns="http://www.w3.org/2000/svg" viewBox="0 0 890.17 267.25">
  <defs>
    <style>
      .cls-1 {
        fill: #280db2;
      }
    </style>
  </defs>
  <g id="text">
    <g>
      <path class="cls-1" d="M375.83,66.78C375.83,30.05,344.33,0,305.83,0H70C31.5,0,0,30.08,0,66.84s31.5,66.84,70,66.84h131.44c38.5,0,70,30.05,70,66.78s31.5,66.78,70,66.78h270.82c38.5,0,70-30.08,70-66.84s-31.5-66.84-70-66.84h-166.43c-38.5,0-70-30.05-70-66.78ZM783.82,133.57c-38.5,0-70,30.08-70,66.84s31.5,66.84,70,66.84h36.35c38.5,0,70-30.08,70-66.84s-31.5-66.84-70-66.84h-36.35Z"/>
      <path class="cls-1" d="M375.83,66.78C375.83,30.05,344.33,0,305.83,0H70C31.5,0,0,30.08,0,66.84s31.5,66.84,70,66.84h131.44c38.5,0,70,30.05,70,66.78s31.5,66.78,70,66.78h270.82c38.5,0,70-30.08,70-66.84s-31.5-66.84-70-66.84h-166.43c-38.5,0-70-30.05-70-66.78ZM783.82,133.57c-38.5,0-70,30.08-70,66.84s31.5,66.84,70,66.84h36.35c38.5,0,70-30.08,70-66.84s-31.5-66.84-70-66.84h-36.35Z"/>
    </g>
  </g>
</svg>