<?xml version="1.0" encoding="UTF-8"?>
<svg id="_レイヤー_2" data-name="レイヤー 2" xmlns="http://www.w3.org/2000/svg" viewBox="0 0 1506.69 663.53">
  <defs>
    <style>
      .cls-1 {
        fill: #fff;
      }

      .cls-2 {
        opacity: .42;
      }
    </style>
  </defs>
  <g id="img">
    <g class="cls-2">
      <g>
        <path class="cls-1" d="M1309.82,503.39c15.4,0,28-11.25,28-25s-12.6-25-28-25h-77.93c-15.4,0-28,11.25-28,25s12.6,25,28,25h77.93ZM1290.17,577.88c0,13.75,12.6,25,28,25h112c15.4,0,28-11.25,28-25s-12.6-25-28-25h-112c-15.4,0-28,11.25-28,25ZM1411.96,100.95c-15.4,0-28,11.25-28,25s12.6,25,28,25h66.73c15.4,0,28-11.25,28-25s-12.6-25-28-25h-66.73ZM477.37,301.15c0,13.75,12.6,25,28,25h77.93c15.4,0,28-11.25,28-25s-12.6-25-28-25h-77.93c-15.4,0-28,11.25-28,25ZM305.59,116.95c0-13.75-9.78-25-21.73-25s-21.73-9.44-21.73-20.98,12.6-20.98,28-20.98h51.32c15.4,0,28-11.25,28-25S356.85,0,341.45,0h-175.35C150.69,0,138.09,11.25,138.09,25s12.6,25,28,25h.48c15.4,0,28,9.44,28,20.98s-12.6,20.98-28,20.98H63.82c-15.4,0-28,11.25-28,25s12.6,25,28,25h213.76c15.4,0,28-11.25,28-25ZM118.15,473.08c15.4,0,28-11.25,28-25s-12.6-25-28-25h-22.45c-15.4,0-28,11.25-28,25s12.6,25,28,25h22.45ZM390.98,592.55c0-11.54,12.6-20.98,28-20.98h13.47c15.4,0,28-11.25,28-25s-12.6-25-28-25h-98.86c-15.4,0-28-10.91-28-24.24s12.6-24.24,28-24.24h88.06c15.4,0,28-11.25,28-25s-12.6-25-28-25h-217.46c-15.4,0-28,11.25-28,25s12.6,25,28,25h8.26c15.4,0,28,10.91,28,24.24s-12.6,24.24-28,24.24H28C12.6,521.57,0,532.82,0,546.57s12.6,25,28,25h256.53c15.4,0,28,9.44,28,20.98s-12.6,20.98-28,20.98h-155.39c-15.4,0-28,11.25-28,25s12.6,25,28,25h498.99c15.4,0,28-11.25,28-25s-12.6-25-28-25h-209.16c-15.4,0-28-9.44-28-20.98ZM1100.46,211.86c0-13.75-12.6-25-28-25h-136.84c-15.4,0-28,11.25-28,25s12.6,25,28,25h136.84c15.4,0,28-11.25,28-25ZM749.78,124.8c0,13.75,12.6,25,28,25h77.93c15.4,0,28-11.25,28-25s-12.6-25-28-25h-77.93c-15.4,0-28,11.25-28,25ZM1013.01,26.89c0-13.75-12.6-25-28-25h-35.66c-15.4,0-28,11.25-28,25s12.6,25,28,25h35.66c15.4,0,28-11.25,28-25ZM506.28,33.05c0-13.75-12.6-25-28-25h-35.66c-15.4,0-28,11.25-28,25s12.6,25,28,25h35.66c15.4,0,28-11.25,28-25ZM1108.03,528.14c0-13.61,12.6-24.74,28-24.74h19c15.4,0,28-11.25,28-25s-12.6-25-28-25h-223.25c-15.4,0-28,11.25-28,25s12.6,25,28,25h38.25c15.4,0,28,11.13,28,24.74s-12.39,24.74-27.54,24.74-27.54,11.25-27.54,25,12.6,25,28,25h257.62c15.4,0,28-11.25,28-25s-12.6-25-28-25h-92.53c-15.4,0-28-11.13-28-24.74ZM359.7,116.19c0,13.75,12.6,25,28,25h3.01c15.4,0,28,11.08,28,24.62s-12.6,24.62-28,24.62h-95.23c-15.4,0-28,11.25-28,25s12.6,25,28,25h211.43c15.4,0,28-11.25,28-25s-9.75-25-21.67-25-21.67-11.08-21.67-24.62,12.6-24.62,28-24.62h25.42c15.4,0,28-11.25,28-25s-12.6-25-28-25h-157.29c-15.4,0-28,11.25-28,25ZM1346.26,124.8c0-13.75-12.6-25-28-25h-52.78c-15.4,0-28-11.13-28-24.74s12.6-24.74,28-24.74h4.16c15.4,0,28-11.25,28-25s-12.6-25-28-25h-167.59c-15.4,0-28,11.25-28,25s12.6,25,28,25h27.94c15.4,0,28,11.13,28,24.74s-12.6,24.74-28,24.74h-182.74c-15.4,0-28,11.25-28,25s12.6,25,28,25h371.02c15.4,0,28-11.25,28-25Z"/>
        <path class="cls-1" d="M1309.82,503.39c15.4,0,28-11.25,28-25s-12.6-25-28-25h-77.93c-15.4,0-28,11.25-28,25s12.6,25,28,25h77.93ZM1290.17,577.88c0,13.75,12.6,25,28,25h112c15.4,0,28-11.25,28-25s-12.6-25-28-25h-112c-15.4,0-28,11.25-28,25ZM1411.96,100.95c-15.4,0-28,11.25-28,25s12.6,25,28,25h66.73c15.4,0,28-11.25,28-25s-12.6-25-28-25h-66.73ZM477.37,301.15c0,13.75,12.6,25,28,25h77.93c15.4,0,28-11.25,28-25s-12.6-25-28-25h-77.93c-15.4,0-28,11.25-28,25ZM305.59,116.95c0-13.75-9.78-25-21.73-25s-21.73-9.44-21.73-20.98,12.6-20.98,28-20.98h51.32c15.4,0,28-11.25,28-25S356.85,0,341.45,0h-175.35C150.69,0,138.09,11.25,138.09,25s12.6,25,28,25h.48c15.4,0,28,9.44,28,20.98s-12.6,20.98-28,20.98H63.82c-15.4,0-28,11.25-28,25s12.6,25,28,25h213.76c15.4,0,28-11.25,28-25ZM118.15,473.08c15.4,0,28-11.25,28-25s-12.6-25-28-25h-22.45c-15.4,0-28,11.25-28,25s12.6,25,28,25h22.45ZM390.98,592.55c0-11.54,12.6-20.98,28-20.98h13.47c15.4,0,28-11.25,28-25s-12.6-25-28-25h-98.86c-15.4,0-28-10.91-28-24.24s12.6-24.24,28-24.24h88.06c15.4,0,28-11.25,28-25s-12.6-25-28-25h-217.46c-15.4,0-28,11.25-28,25s12.6,25,28,25h8.26c15.4,0,28,10.91,28,24.24s-12.6,24.24-28,24.24H28C12.6,521.57,0,532.82,0,546.57s12.6,25,28,25h256.53c15.4,0,28,9.44,28,20.98s-12.6,20.98-28,20.98h-155.39c-15.4,0-28,11.25-28,25s12.6,25,28,25h498.99c15.4,0,28-11.25,28-25s-12.6-25-28-25h-209.16c-15.4,0-28-9.44-28-20.98ZM1100.46,211.86c0-13.75-12.6-25-28-25h-136.84c-15.4,0-28,11.25-28,25s12.6,25,28,25h136.84c15.4,0,28-11.25,28-25ZM749.78,124.8c0,13.75,12.6,25,28,25h77.93c15.4,0,28-11.25,28-25s-12.6-25-28-25h-77.93c-15.4,0-28,11.25-28,25ZM1013.01,26.89c0-13.75-12.6-25-28-25h-35.66c-15.4,0-28,11.25-28,25s12.6,25,28,25h35.66c15.4,0,28-11.25,28-25ZM506.28,33.05c0-13.75-12.6-25-28-25h-35.66c-15.4,0-28,11.25-28,25s12.6,25,28,25h35.66c15.4,0,28-11.25,28-25ZM1108.03,528.14c0-13.61,12.6-24.74,28-24.74h19c15.4,0,28-11.25,28-25s-12.6-25-28-25h-223.25c-15.4,0-28,11.25-28,25s12.6,25,28,25h38.25c15.4,0,28,11.13,28,24.74s-12.39,24.74-27.54,24.74-27.54,11.25-27.54,25,12.6,25,28,25h257.62c15.4,0,28-11.25,28-25s-12.6-25-28-25h-92.53c-15.4,0-28-11.13-28-24.74ZM359.7,116.19c0,13.75,12.6,25,28,25h3.01c15.4,0,28,11.08,28,24.62s-12.6,24.62-28,24.62h-95.23c-15.4,0-28,11.25-28,25s12.6,25,28,25h211.43c15.4,0,28-11.25,28-25s-9.75-25-21.67-25-21.67-11.08-21.67-24.62,12.6-24.62,28-24.62h25.42c15.4,0,28-11.25,28-25s-12.6-25-28-25h-157.29c-15.4,0-28,11.25-28,25ZM1346.26,124.8c0-13.75-12.6-25-28-25h-52.78c-15.4,0-28-11.13-28-24.74s12.6-24.74,28-24.74h4.16c15.4,0,28-11.25,28-25s-12.6-25-28-25h-167.59c-15.4,0-28,11.25-28,25s12.6,25,28,25h27.94c15.4,0,28,11.13,28,24.74s-12.6,24.74-28,24.74h-182.74c-15.4,0-28,11.25-28,25s12.6,25,28,25h371.02c15.4,0,28-11.25,28-25Z"/>
      </g>
    </g>
  </g>
</svg>