<?xml version="1.0" encoding="UTF-8"?>
<svg id="_レイヤー_2" data-name="レイヤー 2" xmlns="http://www.w3.org/2000/svg" viewBox="0 0 150 150">
  <defs>
    <style>
      .cls-1 {
        fill: #d6d6d6;
      }

      .cls-2 {
        fill: #1572b6;
      }

      .cls-3 {
        fill: #ebebeb;
      }

      .cls-4 {
        fill: #33a9dc;
      }

      .cls-5 {
        fill: #fff;
      }

      .cls-6 {
        fill: #e52e8e;
      }
    </style>
  </defs>
  <g id="text">
    <g>
      <g>
        <path class="cls-6" d="M94.91,20.23c10.38,3.77,19.37,10.4,26.04,18.94l13.55-9.84c-8.74-11.35-20.65-20.13-34.42-25.01l-5.18,15.92Z"/>
        <path class="cls-6" d="M150,77h-16.75c-.38,11.32-3.98,21.82-9.93,30.61l13.55,9.83c7.96-11.56,12.74-25.45,13.13-40.45Z"/>
        <path class="cls-1" d="M0,73h16.75c.38-11.32,3.98-21.82,9.93-30.61l-13.55-9.83C5.18,44.11.39,58.01,0,73Z"/>
        <path class="cls-1" d="M26.68,107.61c-5.95-8.79-9.55-19.29-9.93-30.61H0c.39,14.99,5.18,28.89,13.13,40.45l13.55-9.83Z"/>
        <path class="cls-6" d="M123.32,42.39c5.95,8.79,9.55,19.29,9.93,30.61h16.75c-.39-14.99-5.18-28.89-13.13-40.45l-13.55,9.83Z"/>
        <path class="cls-1" d="M91.1,131c-5.12,1.47-10.51,2.27-16.1,2.27s-10.99-.8-16.1-2.27l-5.18,15.93c6.75,1.99,13.89,3.08,21.28,3.08s14.53-1.09,21.28-3.08l-5.18-15.93Z"/>
        <path class="cls-6" d="M120.95,110.84c-6.67,8.53-15.66,15.17-26.04,18.94l5.18,15.92c13.77-4.88,25.68-13.66,34.42-25.01l-13.55-9.84Z"/>
        <path class="cls-6" d="M58.9,19c5.12-1.47,10.51-2.27,16.1-2.27s10.99.8,16.1,2.27l5.18-15.93c-6.75-1.99-13.89-3.08-21.28-3.08s-14.53,1.09-21.28,3.08l5.18,15.93Z"/>
        <path class="cls-1" d="M29.05,39.16c6.67-8.53,15.66-15.17,26.04-18.94l-5.18-15.92c-13.77,4.88-25.68,13.66-34.42,25.01l13.55,9.84Z"/>
        <path class="cls-1" d="M55.09,129.77c-10.38-3.77-19.37-10.4-26.04-18.94l-13.55,9.84c8.74,11.35,20.65,20.13,34.42,25.01l5.18-15.92Z"/>
      </g>
      <g>
        <polygon class="cls-2" points="56.97 95 52.96 50 97.04 50 93.03 94.99 74.97 100 56.97 95"/>
        <polygon class="cls-4" points="75 96.17 89.59 92.13 93.02 53.68 75 53.68 75 96.17"/>
        <polygon class="cls-5" points="75 69.98 82.3 69.98 82.81 64.33 75 64.33 75 58.81 75.02 58.81 88.84 58.81 88.71 60.29 87.35 75.5 75 75.5 75 69.98"/>
        <polygon class="cls-3" points="75.03 84.32 75.01 84.33 68.86 82.66 68.47 78.26 65.48 78.26 62.93 78.26 63.7 86.93 75.01 90.07 75.03 90.06 75.03 84.32"/>
        <polygon class="cls-5" points="81.83 75.27 81.17 82.66 75.01 84.32 75.01 90.06 86.33 86.93 86.41 86 87.37 75.27 81.83 75.27"/>
        <polygon class="cls-3" points="75.02 58.81 75.02 62.24 75.02 64.32 75.02 64.33 61.71 64.33 61.71 64.33 61.69 64.33 61.58 63.09 61.33 60.29 61.19 58.81 75.02 58.81"/>
        <polygon class="cls-3" points="75 69.98 75 73.41 75 75.49 75 75.5 68.95 75.5 68.95 75.5 68.93 75.5 68.82 74.26 68.57 71.46 68.44 69.98 75 69.98"/>
      </g>
    </g>
  </g>
</svg>