<?xml version="1.0" encoding="UTF-8"?>
<svg id="_レイヤー_2" data-name="レイヤー 2" xmlns="http://www.w3.org/2000/svg" viewBox="0 0 300.45 96.7">
  <defs>
    <style>
      .cls-1 {
        fill: none;
        stroke: #e52e8e;
        stroke-miterlimit: 10;
      }
    </style>
  </defs>
  <g id="text">
    <g>
      <path class="cls-1" d="M30.62,11.93l6.6-.02.11,40.13-6.6.02.02,8.8-30.1.09L.5,3.22l30.1-.09.02,8.8ZM20.34,16.89h-2.9s.09,30.28.09,30.28l9.5-.03-.06-21.47-6.6.02-.02-8.8Z"/>
      <path class="cls-1" d="M69.55,69.8v12.67h19.8v13.73h-36.7v-57.73h36.7v13.73h-19.8v3.87h13.2v13.73h-13.2Z"/>
      <path class="cls-1" d="M135.68,39.07h6.6v22.53h-6.6v8.8h-30.1v-13.73h19.8v-3.87h-13.2v-8.8h-6.6v-22.53h6.6v-8.8h30.1v13.73h-19.8v3.87h13.2v8.8Z"/>
      <path class="cls-1" d="M189.33,14.23h-6.6v30.27h6.6v13.73h-30.1v-13.73h6.6V14.23h-6.6V.5h30.1v13.73Z"/>
      <path class="cls-1" d="M230.32,61.74h16.9v22.53h-6.6v8.8h-23.5v-8.8h-6.6v-40.13h6.6v-8.8h23.5v8.8h6.6v13.73h-10.3v-8.8h-9.5v30.27h9.5v-3.87h-6.6v-13.73Z"/>
      <path class="cls-1" d="M276.45,48.13h-2.9v26.4h-10.3V16.8h10.3v8.8h6.6v8.8h6.6v8.8h2.9v-26.4h10.3v57.73h-10.3v-8.8h-6.6v-8.8h-6.6v-8.8Z"/>
    </g>
  </g>
</svg>