<?xml version="1.0" encoding="UTF-8"?>
<svg id="_レイヤー_2" data-name="レイヤー 2" xmlns="http://www.w3.org/2000/svg" viewBox="0 0 435.84 154.33">
  <defs>
    <style>
      .cls-1 {
        fill: #97cc15;
      }
    </style>
  </defs>
  <g id="illust">
    <g>
      <path class="cls-1" d="M1.26,113.42c13.63-2.21,26.98-6.02,39.74-11.31,12.72-5.27,24.84-11.95,36.09-19.91s21.6-17.13,30.77-27.4c4.59-5.14,8.89-10.54,12.85-16.18,1.89-2.68,3.73-5.6,6.41-7.58,1.3-.96,2.81-1.65,4.44-1.73,2.09-.1,4.09.71,6.04,1.35,12.32,4.04,26.46.98,36.2-7.52,1.24-1.08,2.4-2.26,3.47-3.51l-1.57-.2c13.56,17.61,27.31,35.3,43.71,50.41,7.97,7.35,16.58,14.06,25.91,19.61,9.8,5.82,20.3,9.89,31.16,13.27,12.81,3.99,25.96,7.51,37.5,14.58,1.1.67,2.11-1.05,1.01-1.73-10.06-6.17-21.37-9.7-32.57-13.12-10.97-3.36-21.81-6.88-31.93-12.37-19.28-10.47-35.28-25.91-49.54-42.39-8.19-9.47-15.88-19.35-23.52-29.27-.36-.47-1.1-.74-1.57-.2-8.57,9.93-22.8,14.46-35.53,11.16-3.44-.89-6.79-2.67-10.43-1.85-3.02.68-5.44,2.9-7.36,5.22-2.1,2.55-3.88,5.36-5.83,8.02-2.06,2.8-4.22,5.54-6.45,8.21-8.84,10.57-18.92,20.12-29.93,28.4s-22.79,15.22-35.27,20.82c-12.57,5.64-25.8,9.84-39.34,12.42-1.66.32-3.32.61-4.98.88-1.27.2-.73,2.13.53,1.93h0Z"/>
      <path class="cls-1" d="M313.54,118.7c16.89,1.03,32.66,8.89,48,15.37,15.1,6.38,30.35,12.68,46.32,16.55,8.85,2.15,17.9,3.5,27.02,3.71,1.29.03,1.29-1.97,0-2-16.48-.38-32.51-4.64-47.93-10.23-15.61-5.66-30.61-12.82-46.11-18.75-8.78-3.36-17.86-6.07-27.3-6.65-1.29-.08-1.28,1.92,0,2h0Z"/>
      <path class="cls-1" d="M87.42,80.65l9.75-3.05,4.76-1.49c.87-.27,1.74-.56,2.62-.82.57-.17,1.35-.48,1.94-.27,1.3.47.5,3.04.35,3.96-.27,1.63-.54,3.25-.8,4.88-.56,3.41-1.13,6.83-1.69,10.24-.14.85.98,1.86,1.67.97,6.16-7.92,12.31-15.84,18.47-23.76h-1.41c5.76,5.84,9.31,13.62,9.9,21.81.06.83,1.07,1.37,1.71.71,4.87-5.06,9.75-10.13,14.62-15.19,1.05-1.09,2.18-2.73,3.56-3.4s2.41.36,3.02,1.49c1.38,2.54.57,5.67,2.01,8.25.38.68,1.34.62,1.73,0,2.74-4.33,9.38-5.44,13.34-2.14.46.38,1.26.42,1.57-.2,1.93-3.93,6.04-6.63,10.47-6.55s8.43,2.96,10.21,6.95c.3.67,1.42.64,1.73,0,3.71-7.76,15.35-9.96,21.56-3.93.92.9,2.34-.52,1.41-1.41-7.08-6.87-20.42-4.61-24.7,4.34h1.73c-2.07-4.63-6.86-7.84-11.94-7.94s-9.97,3.01-12.2,7.54l1.57-.2c-4.96-4.14-13.01-2.94-16.48,2.55h1.73c-1.59-2.85-.49-6.37-2.57-9.09-.75-.97-1.81-1.76-3.07-1.85-1.53-.11-2.74.76-3.78,1.79-5.77,5.73-11.3,11.73-16.94,17.59l1.71.71c-.63-8.72-4.35-16.99-10.49-23.22-.34-.35-1.08-.43-1.41,0-6.16,7.92-12.31,15.84-18.47,23.76l1.67.97c.66-3.98,1.31-7.96,1.97-11.94.3-1.85.72-3.71.89-5.58.12-1.25-.06-2.59-1.06-3.45s-2.49-.74-3.72-.4c-1.87.52-3.72,1.16-5.58,1.74-3.96,1.24-7.93,2.48-11.89,3.72-1.22.38-.7,2.31.53,1.93h0Z"/>
      <path class="cls-1" d="M224.97,116.43c6.87,4.57,13.74,9.15,20.6,13.72,1.07.72,2.08-1.02,1.01-1.73-6.87-4.57-13.74-9.15-20.6-13.72-1.07-.72-2.08,1.02-1.01,1.73h0Z"/>
      <path class="cls-1" d="M175.44,94.84c-1.2,6.72-.59,13.66,1.84,20.05.45,1.19,2.39.67,1.93-.53-2.3-6.04-2.98-12.61-1.84-18.98.22-1.26-1.7-1.8-1.93-.53h0Z"/>
      <path class="cls-1" d="M110.33,103.85c-1.15,1.91-2.29,3.81-3.44,5.72-.27.45-.11,1.12.36,1.37s1.08.12,1.37-.36c1.15-1.91,2.29-3.81,3.44-5.72.27-.45.11-1.12-.36-1.37s-1.08-.12-1.37.36h0Z"/>
      <path class="cls-1" d="M98.39,90.58c-9.37,11.91-20.25,22.66-32.34,31.81-3.4,2.57-6.89,5.02-10.47,7.35-1.07.7-.07,2.43,1.01,1.73,12.79-8.33,24.53-18.26,34.81-29.55,2.92-3.21,5.72-6.52,8.4-9.93.79-1-.62-2.43-1.41-1.41h0Z"/>
      <path class="cls-1" d="M336.44,54.92c-8.62-.34-16.84,2.46-25.05,4.67-8.73,2.35-17.59,3.33-26.62,3.13s-18.35-1.46-27.42-3c-2.22-.37-4.43-.77-6.64-1.16-2.05-.37-4.23-.59-6.21-1.28-2.95-1.02-4.05-3.85-3.45-6.77.55-2.7,2.25-5.28,4.72-6.56,3.76-1.96,8.37-1.53,12.39-.79,4.37.81,8.69,1.91,13.07,2.68s8.83,1.37,13.28,1.8c9.15.89,18.32.95,27.49.48,9.27-.48,18.52-1.32,27.81-1.24,4.6.04,9.21.3,13.76.97,3.1.46,8.8,1.3,7.06,5.84-1.52,3.98-6.89,4.32-10.48,4.66-4.5.43-9.03.41-13.53-.05-2.28-.23-4.54-.59-6.78-1.05-1.26-.26-1.79,1.67-.53,1.93,4.75.97,9.58,1.48,14.43,1.48,2.38,0,4.75-.13,7.12-.38,2.15-.23,4.36-.46,6.41-1.19,3.33-1.2,6.42-4.34,5.53-8.17s-5.44-4.51-8.69-4.99c-19.79-2.93-39.78,1.15-59.65.39-10.04-.39-20.05-1.66-29.86-3.81-7.12-1.56-17.33-4.41-22.87,2.2-3.86,4.6-4.2,12.45,2.44,14.59,2.23.72,4.65.97,6.95,1.39s4.74.84,7.12,1.23c4.84.8,9.7,1.51,14.58,2.03,9.58,1.01,19.27,1.23,28.81-.2s18.48-5.26,28.02-6.5c2.25-.29,4.52-.4,6.78-.31,1.29.05,1.28-1.95,0-2h0Z"/>
      <path class="cls-1" d="M139.29,8.08c-13.25,2.2-26.25-2.62-39.05-5.3-6.56-1.38-13.23-2.25-19.93-2.6-3.38-.18-6.78-.23-10.16-.14-2.92.07-5.99.06-8.86.68-2.43.52-4.7,1.81-5.69,4.19-.88,2.12-.43,4.54,1.54,5.86,1.02.68,2.23.98,3.41,1.25,1.76.4,3.53.77,5.3,1.16,3.29.72,6.58,1.44,9.87,2.17,12.33,2.71,24.84,5.65,37.54,5.5,6.82-.08,13.76-1.09,20.12-3.64,2.56-1.03,5.26-2.49,6.56-5.06,1.18-2.34,1.1-5.21-.73-7.18-.88-.95-2.29.47-1.41,1.41,1.71,1.85.89,4.69-.71,6.31-1.88,1.9-4.62,2.81-7.1,3.6-5.4,1.73-11.05,2.47-16.71,2.54-11.62.14-23.07-2.37-34.36-4.85-5.94-1.3-11.88-2.57-17.81-3.91-1.19-.27-2.62-.52-3.43-1.53-.74-.92-.58-2.19-.08-3.19,1.24-2.47,4.39-2.87,6.85-3.06,12.1-.91,24.37.03,36.22,2.59,12.88,2.79,25.84,7.32,39.18,5.1,1.27-.21.73-2.14-.53-1.93h0Z"/>
    </g>
  </g>
</svg>