<?xml version="1.0" encoding="UTF-8"?>
<svg id="_レイヤー_2" data-name="レイヤー 2" xmlns="http://www.w3.org/2000/svg" viewBox="0 0 150 150">
  <defs>
    <style>
      .cls-1 {
        fill: #d6d6d6;
      }

      .cls-2 {
        fill: #ebebeb;
      }

      .cls-3 {
        fill: #fff;
      }

      .cls-4 {
        fill: #f1662a;
      }

      .cls-5 {
        fill: #e52e8e;
      }

      .cls-6 {
        fill: #e44f26;
      }
    </style>
  </defs>
  <g id="text">
    <g>
      <g>
        <path class="cls-5" d="M94.91,20.23c10.38,3.77,19.37,10.4,26.04,18.94l13.55-9.84c-8.74-11.35-20.65-20.13-34.42-25.01l-5.18,15.92Z"/>
        <path class="cls-5" d="M150,77h-16.75c-.38,11.32-3.98,21.82-9.93,30.61l13.55,9.83c7.96-11.56,12.74-25.45,13.13-40.45Z"/>
        <path class="cls-1" d="M0,73h16.75c.38-11.32,3.98-21.82,9.93-30.61l-13.55-9.83C5.18,44.11.39,58.01,0,73Z"/>
        <path class="cls-1" d="M26.68,107.61c-5.95-8.79-9.55-19.29-9.93-30.61H0c.39,14.99,5.18,28.89,13.13,40.45l13.55-9.83Z"/>
        <path class="cls-5" d="M123.32,42.39c5.95,8.79,9.55,19.29,9.93,30.61h16.75c-.39-14.99-5.18-28.89-13.13-40.45l-13.55,9.83Z"/>
        <path class="cls-1" d="M91.1,131c-5.12,1.47-10.51,2.27-16.1,2.27s-10.99-.8-16.1-2.27l-5.18,15.93c6.75,1.99,13.89,3.08,21.28,3.08s14.53-1.09,21.28-3.08l-5.18-15.93Z"/>
        <path class="cls-5" d="M120.95,110.84c-6.67,8.53-15.66,15.17-26.04,18.94l5.18,15.92c13.77-4.88,25.68-13.66,34.42-25.01l-13.55-9.84Z"/>
        <path class="cls-5" d="M58.9,19c5.12-1.47,10.51-2.27,16.1-2.27s10.99.8,16.1,2.27l5.18-15.93c-6.75-1.99-13.89-3.08-21.28-3.08s-14.53,1.09-21.28,3.08l5.18,15.93Z"/>
        <path class="cls-1" d="M29.05,39.16c6.67-8.53,15.66-15.17,26.04-18.94l-5.18-15.92c-13.77,4.88-25.68,13.66-34.42,25.01l13.55,9.84Z"/>
        <path class="cls-1" d="M55.09,129.77c-10.38-3.77-19.37-10.4-26.04-18.94l-13.55,9.84c8.74,11.35,20.65,20.13,34.42,25.01l5.18-15.92Z"/>
      </g>
      <g>
        <polygon class="cls-6" points="56.97 95 52.96 50 97.04 50 93.03 94.99 74.97 100 56.97 95"/>
        <polygon class="cls-4" points="75 96.17 89.59 92.13 93.02 53.68 75 53.68 75 96.17"/>
        <polygon class="cls-2" points="75 70.37 67.7 70.37 67.19 64.72 75 64.72 75 59.2 74.98 59.2 61.16 59.2 61.29 60.68 62.65 75.89 75 75.89 75 70.37"/>
        <polygon class="cls-2" points="75 84.7 74.98 84.71 68.83 83.05 68.44 78.65 65.45 78.65 62.89 78.65 63.67 87.31 74.98 90.45 75 90.45 75 84.7"/>
        <polygon class="cls-3" points="74.98 70.37 74.98 75.89 81.78 75.89 81.14 83.05 74.98 84.71 74.98 90.45 86.3 87.31 86.38 86.38 87.67 71.85 87.81 70.37 86.32 70.37 74.98 70.37"/>
        <polygon class="cls-3" points="74.98 59.2 74.98 62.63 74.98 64.71 74.98 64.72 88.29 64.72 88.29 64.72 88.31 64.72 88.42 63.48 88.68 60.68 88.81 59.2 74.98 59.2"/>
      </g>
    </g>
  </g>
</svg>