<?xml version="1.0" encoding="UTF-8"?>
<svg id="_レイヤー_2" data-name="レイヤー 2" xmlns="http://www.w3.org/2000/svg" viewBox="0 0 150 150">
  <defs>
    <style>
      .cls-1 {
        fill: #d6d6d6;
      }

      .cls-2 {
        fill: #e52e8e;
      }

      .cls-3 {
        fill: #f7df1e;
      }
    </style>
  </defs>
  <g id="text">
    <g>
      <g>
        <path class="cls-2" d="M94.91,20.23c10.38,3.77,19.37,10.4,26.04,18.94l13.55-9.84c-8.74-11.35-20.65-20.13-34.42-25.01l-5.18,15.92Z"/>
        <path class="cls-1" d="M150,77h-16.75c-.38,11.32-3.98,21.82-9.93,30.61l13.55,9.83c7.96-11.56,12.74-25.45,13.13-40.45Z"/>
        <path class="cls-1" d="M0,73h16.75c.38-11.32,3.98-21.82,9.93-30.61l-13.55-9.83C5.18,44.11.39,58.01,0,73Z"/>
        <path class="cls-1" d="M26.68,107.61c-5.95-8.79-9.55-19.29-9.93-30.61H0c.39,14.99,5.18,28.89,13.13,40.45l13.55-9.83Z"/>
        <path class="cls-2" d="M123.32,42.39c5.95,8.79,9.55,19.29,9.93,30.61h16.75c-.39-14.99-5.18-28.89-13.13-40.45l-13.55,9.83Z"/>
        <path class="cls-1" d="M91.1,131c-5.12,1.47-10.51,2.27-16.1,2.27s-10.99-.8-16.1-2.27l-5.18,15.93c6.75,1.99,13.89,3.08,21.28,3.08s14.53-1.09,21.28-3.08l-5.18-15.93Z"/>
        <path class="cls-1" d="M120.95,110.84c-6.67,8.53-15.66,15.17-26.04,18.94l5.18,15.92c13.77-4.88,25.68-13.66,34.42-25.01l-13.55-9.84Z"/>
        <path class="cls-2" d="M58.9,19c5.12-1.47,10.51-2.27,16.1-2.27s10.99.8,16.1,2.27l5.18-15.93c-6.75-1.99-13.89-3.08-21.28-3.08s-14.53,1.09-21.28,3.08l5.18,15.93Z"/>
        <path class="cls-1" d="M29.05,39.16c6.67-8.53,15.66-15.17,26.04-18.94l-5.18-15.92c-13.77,4.88-25.68,13.66-34.42,25.01l13.55,9.84Z"/>
        <path class="cls-1" d="M55.09,129.77c-10.38-3.77-19.37-10.4-26.04-18.94l-13.55,9.84c8.74,11.35,20.65,20.13,34.42,25.01l5.18-15.92Z"/>
      </g>
      <g>
        <rect class="cls-3" x="50" y="50" width="50" height="50" rx="10" ry="10"/>
        <path d="M81.64,86.13c.98,1.66,2.34,2.83,4.59,2.83,1.95,0,3.22-.98,3.22-2.34,0-1.56-1.27-2.15-3.42-3.12l-1.17-.49c-3.42-1.46-5.66-3.22-5.66-7.03,0-3.52,2.64-6.25,6.84-6.25,3.03,0,5.18,1.07,6.64,3.81l-3.61,2.34c-.78-1.46-1.66-2.05-3.03-2.05s-2.25.88-2.25,2.05c0,1.37.88,1.95,2.93,2.83l1.17.49c4,1.76,6.25,3.42,6.25,7.42s-3.32,6.54-7.81,6.54-7.23-2.05-8.59-4.79l3.91-2.25ZM65.04,86.52c.78,1.27,1.37,2.44,3.03,2.44,1.56,0,2.54-.59,2.54-2.93v-16.21h4.69v16.02c0,4.88-2.83,7.03-7.03,7.03-3.81,0-5.96-1.95-7.03-4.3l3.81-2.05Z"/>
      </g>
    </g>
  </g>
</svg>