<?xml version="1.0" encoding="UTF-8"?>
<svg id="_レイヤー_2" data-name="レイヤー 2" xmlns="http://www.w3.org/2000/svg" viewBox="0 0 279.69 65.46">
  <defs>
    <style>
      .cls-1 {
        fill: none;
        stroke: #e52e8e;
        stroke-miterlimit: 10;
      }
    </style>
  </defs>
  <g id="text">
    <g>
      <path class="cls-1" d="M12.79,5.64v32h14.4v9.98H.5V5.64h12.29Z"/>
      <path class="cls-1" d="M50.9,52.16h-6.91v12.8h-7.49V29.37h4.8v-6.4h17.09v6.4h4.8v35.58h-12.29v-12.8ZM50.9,32.96h-6.91v9.22h6.91v-9.22Z"/>
      <path class="cls-1" d="M82.1,29.44h-2.11v19.2h-7.49V6.66h7.49v6.4h4.8v6.4h4.8v6.4h2.11V6.66h7.49v41.98h-7.49v-6.4h-4.8v-6.4h-4.8v-6.4Z"/>
      <path class="cls-1" d="M123.14,19.7h12.29v16.38h-4.8v6.4h-17.09v-6.4h-4.8V6.9h4.8V.5h17.09v6.4h4.8v9.98h-7.49v-6.4h-6.91v22.02h6.91v-2.82h-4.8v-9.98Z"/>
      <path class="cls-1" d="M163.94,12.49h7.49v35.58h-4.8v6.4h-17.09v-6.4h-4.8V12.49h12.29v32h6.91V12.49Z"/>
      <path class="cls-1" d="M194.9,34.28h-6.91v12.8h-7.49V11.5h4.8v-6.4h17.09v6.4h4.8v35.58h-12.29v-12.8ZM194.9,15.08h-6.91v9.22h6.91v-9.22Z"/>
      <path class="cls-1" d="M230.9,37.9h12.29v16.38h-4.8v6.4h-17.09v-6.4h-4.8v-29.18h4.8v-6.4h17.09v6.4h4.8v9.98h-7.49v-6.4h-6.91v22.02h6.91v-2.82h-4.8v-9.98Z"/>
      <path class="cls-1" d="M264.79,31.34v9.22h14.4v9.98h-26.69V8.56h26.69v9.98h-14.4v2.82h9.6v9.98h-9.6Z"/>
    </g>
  </g>
</svg>