<?xml version="1.0" encoding="UTF-8"?>
<svg id="_レイヤー_2" data-name="レイヤー 2" xmlns="http://www.w3.org/2000/svg" viewBox="0 0 65.62 65.62">
  <defs>
    <style>
      .cls-1 {
        fill: #e52e8e;
      }
    </style>
  </defs>
  <g id="text">
    <g>
      <rect class="cls-1" x="32.81" y="60.16" width="5.47" height="5.47" transform="translate(71.09 125.78) rotate(180)"/>
      <rect class="cls-1" x="27.34" y="60.16" width="5.47" height="5.47" transform="translate(60.16 125.78) rotate(180)"/>
      <rect class="cls-1" x="32.81" y="54.69" width="5.47" height="5.47" transform="translate(71.09 114.84) rotate(180)"/>
      <rect class="cls-1" x="27.34" y="54.69" width="5.47" height="5.47" transform="translate(60.16 114.84) rotate(180)"/>
      <rect class="cls-1" x="21.88" y="54.69" width="5.47" height="5.47" transform="translate(49.22 114.84) rotate(180)"/>
      <rect class="cls-1" x="32.81" y="49.22" width="5.47" height="5.47" transform="translate(71.09 103.91) rotate(180)"/>
      <rect class="cls-1" x="27.34" y="49.22" width="5.47" height="5.47" transform="translate(60.16 103.91) rotate(180)"/>
      <rect class="cls-1" x="21.88" y="49.22" width="5.47" height="5.47" transform="translate(49.22 103.91) rotate(180)"/>
      <rect class="cls-1" x="16.41" y="49.22" width="5.47" height="5.47" transform="translate(38.28 103.91) rotate(180)"/>
      <rect class="cls-1" x="60.16" y="43.75" width="5.47" height="5.47" transform="translate(125.78 92.97) rotate(180)"/>
      <rect class="cls-1" x="54.69" y="43.75" width="5.47" height="5.47" transform="translate(114.84 92.97) rotate(180)"/>
      <rect class="cls-1" x="49.22" y="43.75" width="5.47" height="5.47" transform="translate(103.91 92.97) rotate(180)"/>
      <rect class="cls-1" x="43.75" y="43.75" width="5.47" height="5.47" transform="translate(92.97 92.97) rotate(180)"/>
      <rect class="cls-1" x="38.28" y="43.75" width="5.47" height="5.47" transform="translate(82.03 92.97) rotate(180)"/>
      <rect class="cls-1" x="32.81" y="43.75" width="5.47" height="5.47" transform="translate(71.09 92.97) rotate(180)"/>
      <rect class="cls-1" x="27.34" y="43.75" width="5.47" height="5.47" transform="translate(60.16 92.97) rotate(180)"/>
      <rect class="cls-1" x="21.88" y="43.75" width="5.47" height="5.47" transform="translate(49.22 92.97) rotate(180)"/>
      <rect class="cls-1" x="16.41" y="43.75" width="5.47" height="5.47" transform="translate(38.28 92.97) rotate(180)"/>
      <rect class="cls-1" x="10.94" y="43.75" width="5.47" height="5.47" transform="translate(27.34 92.97) rotate(180)"/>
      <rect class="cls-1" x="60.16" y="38.28" width="5.47" height="5.47" transform="translate(125.78 82.03) rotate(180)"/>
      <rect class="cls-1" x="54.69" y="38.28" width="5.47" height="5.47" transform="translate(114.84 82.03) rotate(180)"/>
      <rect class="cls-1" x="49.22" y="38.28" width="5.47" height="5.47" transform="translate(103.91 82.03) rotate(180)"/>
      <rect class="cls-1" x="43.75" y="38.28" width="5.47" height="5.47" transform="translate(92.97 82.03) rotate(180)"/>
      <rect class="cls-1" x="38.28" y="38.28" width="5.47" height="5.47" transform="translate(82.03 82.03) rotate(180)"/>
      <rect class="cls-1" x="32.81" y="38.28" width="5.47" height="5.47" transform="translate(71.09 82.03) rotate(180)"/>
      <rect class="cls-1" x="27.34" y="38.28" width="5.47" height="5.47" transform="translate(60.16 82.03) rotate(180)"/>
      <rect class="cls-1" x="21.88" y="38.28" width="5.47" height="5.47" transform="translate(49.22 82.03) rotate(180)"/>
      <rect class="cls-1" x="16.41" y="38.28" width="5.47" height="5.47" transform="translate(38.28 82.03) rotate(180)"/>
      <rect class="cls-1" x="10.94" y="38.28" width="5.47" height="5.47" transform="translate(27.34 82.03) rotate(180)"/>
      <rect class="cls-1" x="5.47" y="38.28" width="5.47" height="5.47" transform="translate(16.41 82.03) rotate(180)"/>
      <rect class="cls-1" x="60.16" y="32.81" width="5.47" height="5.47" transform="translate(125.78 71.09) rotate(180)"/>
      <rect class="cls-1" x="54.69" y="32.81" width="5.47" height="5.47" transform="translate(114.84 71.09) rotate(180)"/>
      <rect class="cls-1" x="49.22" y="32.81" width="5.47" height="5.47" transform="translate(103.91 71.09) rotate(180)"/>
      <rect class="cls-1" x="43.75" y="32.81" width="5.47" height="5.47" transform="translate(92.97 71.09) rotate(180)"/>
      <rect class="cls-1" x="38.28" y="32.81" width="5.47" height="5.47" transform="translate(82.03 71.09) rotate(180)"/>
      <rect class="cls-1" x="32.81" y="32.81" width="5.47" height="5.47" transform="translate(71.09 71.09) rotate(180)"/>
      <rect class="cls-1" x="27.34" y="32.81" width="5.47" height="5.47" transform="translate(60.16 71.09) rotate(180)"/>
      <rect class="cls-1" x="21.88" y="32.81" width="5.47" height="5.47" transform="translate(49.22 71.09) rotate(180)"/>
      <rect class="cls-1" x="16.41" y="32.81" width="5.47" height="5.47" transform="translate(38.28 71.09) rotate(180)"/>
      <rect class="cls-1" x="10.94" y="32.81" width="5.47" height="5.47" transform="translate(27.34 71.09) rotate(180)"/>
      <rect class="cls-1" x="5.47" y="32.81" width="5.47" height="5.47" transform="translate(16.41 71.09) rotate(180)"/>
      <rect class="cls-1" y="32.81" width="5.47" height="5.47" transform="translate(5.47 71.09) rotate(180)"/>
      <rect class="cls-1" x="60.16" y="27.34" width="5.47" height="5.47" transform="translate(125.78 60.16) rotate(180)"/>
      <rect class="cls-1" x="54.69" y="27.34" width="5.47" height="5.47" transform="translate(114.84 60.16) rotate(180)"/>
      <rect class="cls-1" x="49.22" y="27.34" width="5.47" height="5.47" transform="translate(103.91 60.16) rotate(180)"/>
      <rect class="cls-1" x="43.75" y="27.34" width="5.47" height="5.47" transform="translate(92.97 60.16) rotate(180)"/>
      <rect class="cls-1" x="38.28" y="27.34" width="5.47" height="5.47" transform="translate(82.03 60.16) rotate(180)"/>
      <rect class="cls-1" x="32.81" y="27.34" width="5.47" height="5.47" transform="translate(71.09 60.16) rotate(180)"/>
      <rect class="cls-1" x="27.34" y="27.34" width="5.47" height="5.47" transform="translate(60.16 60.16) rotate(180)"/>
      <rect class="cls-1" x="21.88" y="27.34" width="5.47" height="5.47" transform="translate(49.22 60.16) rotate(180)"/>
      <rect class="cls-1" x="16.41" y="27.34" width="5.47" height="5.47" transform="translate(38.28 60.16) rotate(180)"/>
      <rect class="cls-1" x="10.94" y="27.34" width="5.47" height="5.47" transform="translate(27.34 60.16) rotate(180)"/>
      <rect class="cls-1" x="5.47" y="27.34" width="5.47" height="5.47" transform="translate(16.41 60.16) rotate(180)"/>
      <rect class="cls-1" y="27.34" width="5.47" height="5.47" transform="translate(5.47 60.16) rotate(180)"/>
      <rect class="cls-1" x="60.16" y="21.88" width="5.47" height="5.47" transform="translate(125.78 49.22) rotate(180)"/>
      <rect class="cls-1" x="54.69" y="21.88" width="5.47" height="5.47" transform="translate(114.84 49.22) rotate(180)"/>
      <rect class="cls-1" x="49.22" y="21.88" width="5.47" height="5.47" transform="translate(103.91 49.22) rotate(180)"/>
      <rect class="cls-1" x="43.75" y="21.88" width="5.47" height="5.47" transform="translate(92.97 49.22) rotate(180)"/>
      <rect class="cls-1" x="38.28" y="21.88" width="5.47" height="5.47" transform="translate(82.03 49.22) rotate(180)"/>
      <rect class="cls-1" x="32.81" y="21.88" width="5.47" height="5.47" transform="translate(71.09 49.22) rotate(180)"/>
      <rect class="cls-1" x="27.34" y="21.88" width="5.47" height="5.47" transform="translate(60.16 49.22) rotate(180)"/>
      <rect class="cls-1" x="21.88" y="21.88" width="5.47" height="5.47" transform="translate(49.22 49.22) rotate(180)"/>
      <rect class="cls-1" x="16.41" y="21.88" width="5.47" height="5.47" transform="translate(38.28 49.22) rotate(180)"/>
      <rect class="cls-1" x="10.94" y="21.88" width="5.47" height="5.47" transform="translate(27.34 49.22) rotate(180)"/>
      <rect class="cls-1" x="5.47" y="21.88" width="5.47" height="5.47" transform="translate(16.41 49.22) rotate(180)"/>
      <rect class="cls-1" x="60.16" y="16.41" width="5.47" height="5.47" transform="translate(125.78 38.28) rotate(180)"/>
      <rect class="cls-1" x="54.69" y="16.41" width="5.47" height="5.47" transform="translate(114.84 38.28) rotate(180)"/>
      <rect class="cls-1" x="49.22" y="16.41" width="5.47" height="5.47" transform="translate(103.91 38.28) rotate(180)"/>
      <rect class="cls-1" x="43.75" y="16.41" width="5.47" height="5.47" transform="translate(92.97 38.28) rotate(180)"/>
      <rect class="cls-1" x="38.28" y="16.41" width="5.47" height="5.47" transform="translate(82.03 38.28) rotate(180)"/>
      <rect class="cls-1" x="32.81" y="16.41" width="5.47" height="5.47" transform="translate(71.09 38.28) rotate(180)"/>
      <rect class="cls-1" x="27.34" y="16.41" width="5.47" height="5.47" transform="translate(60.16 38.28) rotate(180)"/>
      <rect class="cls-1" x="21.88" y="16.41" width="5.47" height="5.47" transform="translate(49.22 38.28) rotate(180)"/>
      <rect class="cls-1" x="16.41" y="16.41" width="5.47" height="5.47" transform="translate(38.28 38.28) rotate(180)"/>
      <rect class="cls-1" x="10.94" y="16.41" width="5.47" height="5.47" transform="translate(27.34 38.28) rotate(180)"/>
      <rect class="cls-1" x="32.81" y="10.94" width="5.47" height="5.47" transform="translate(71.09 27.34) rotate(180)"/>
      <rect class="cls-1" x="27.34" y="10.94" width="5.47" height="5.47" transform="translate(60.16 27.34) rotate(180)"/>
      <rect class="cls-1" x="21.88" y="10.94" width="5.47" height="5.47" transform="translate(49.22 27.34) rotate(180)"/>
      <rect class="cls-1" x="16.41" y="10.94" width="5.47" height="5.47" transform="translate(38.28 27.34) rotate(180)"/>
      <rect class="cls-1" x="32.81" y="5.47" width="5.47" height="5.47" transform="translate(71.09 16.41) rotate(180)"/>
      <rect class="cls-1" x="27.34" y="5.47" width="5.47" height="5.47" transform="translate(60.16 16.41) rotate(180)"/>
      <rect class="cls-1" x="21.88" y="5.47" width="5.47" height="5.47" transform="translate(49.22 16.41) rotate(180)"/>
      <rect class="cls-1" x="32.81" width="5.47" height="5.47" transform="translate(71.09 5.47) rotate(180)"/>
      <rect class="cls-1" x="27.34" width="5.47" height="5.47" transform="translate(60.16 5.47) rotate(180)"/>
    </g>
  </g>
</svg>