<?xml version="1.0" encoding="UTF-8"?>
<svg id="_レイヤー_2" data-name="レイヤー 2" xmlns="http://www.w3.org/2000/svg" viewBox="0 0 74.99 145.55">
  <defs>
    <style>
      .cls-1 {
        fill: #97cc15;
      }
    </style>
  </defs>
  <g id="illust">
    <g>
      <path class="cls-1" d="M58.2,13.71c.17-2.69.54-5.37,1.13-8,.23-1.04.37-2.42.97-3.32.52-.78,1.09-.12,1.24.56.23.98-.46,1.97-.87,2.82-.48.98-.84,1.99-.85,3.09-.03,1.92.96,3.65,2.22,5.02,1.59,1.73,3.66,3.02,5.73,4.07,1.15.58,2.16-1.14,1.01-1.73-2.03-1.03-4.05-2.27-5.55-4.01-.64-.74-1.17-1.63-1.35-2.61-.21-1.15.19-2.17.7-3.18s1.1-2.15,1.01-3.34c-.08-1.02-.57-2.06-1.42-2.66-.91-.63-2.12-.54-2.95.19-.89.78-1.18,1.99-1.45,3.09-.83,3.28-1.34,6.64-1.56,10.01-.08,1.29,1.92,1.28,2,0h0Z"/>
      <path class="cls-1" d="M55.42,11.45c-5.24.78-10.25,2.7-14.68,5.61-1.08.71-.14,2.3,1.01,1.73,4.79-2.4,11.24.47,12.75,5.58.22.74,1.12.96,1.67.44,3.03-2.84,7.87.25,11.27.55,3.06.28,6.37-1.34,6.77-4.63.07-.58-.52-.94-1-1-2.51-.3-4.85-1.22-6.94-2.63-1.07-.72-2.07,1.01-1.01,1.73,2.4,1.62,5.08,2.56,7.95,2.91l-1-1c-.18,1.52-1.8,2.4-3.17,2.62-1.91.31-3.87-.48-5.67-1-2.9-.83-6.22-1.19-8.6,1.04l1.67.44c-1.88-6.4-9.74-9.76-15.68-6.77l1.01,1.73c4.31-2.82,9.11-4.64,14.2-5.4,1.27-.19.73-2.12-.53-1.93h0Z"/>
      <path class="cls-1" d="M46.75,17.49c-8.97,14.65-13.06,31.78-22.7,46.06-2.49,3.68-5.39,6.98-8.54,10.1s-6.64,6.43-9.3,10.23c-4.88,6.99-7.47,15.87-5.61,24.33,1.71,7.75,7,14.48,14.56,17.19,8.25,2.96,17.87,1.42,26.16-.62,4.24-1.05,8.45-2.61,11.97-5.26s6.04-5.9,8.17-9.54c4.56-7.77,7.57-16.67,9.77-25.36,4.57-18.04,4.98-37.12,1.12-55.33-.49-2.31-1.05-4.6-1.68-6.87-.34-1.24-2.27-.71-1.93.53,4.77,17.4,5.52,35.84,2.22,53.58-1.64,8.81-4.24,17.47-7.83,25.68-3.42,7.8-8.01,15.12-16.12,18.63-3.95,1.71-8.24,2.58-12.47,3.28s-8.61,1.13-12.92.69-8.32-1.82-11.6-4.51c-2.93-2.41-5.16-5.65-6.49-9.19-3.02-8.03-1.31-16.86,3.02-24.07,4.5-7.49,11.88-12.62,17.13-19.53,9.94-13.1,14.21-29.33,21.8-43.72.94-1.78,1.94-3.54,2.99-5.25.67-1.1-1.06-2.11-1.73-1.01h0Z"/>
      <path class="cls-1" d="M37.11,58.69c.9-1.08,2.07-1.85,3.43-2.21.65-.17,1.28-.24,1.97-.2.6.04,1.13.21,1.52.7.34.42,1.06.35,1.41,0,.42-.42.34-.99,0-1.41-1.19-1.49-3.49-1.46-5.18-1.08s-3.41,1.4-4.57,2.78c-.35.41-.41,1.01,0,1.41.36.36,1.07.42,1.41,0h0Z"/>
      <path class="cls-1" d="M38.69,56.47c-.13.41-.06.88.16,1.25.17.29.44.55.75.7.26.12.44.17.73.2.19.02.4-.01.59-.05.17-.04.34-.12.5-.19.11-.05.21-.11.31-.18.66-.48,1.34-1.19,1.11-2.08-.21-.81-1.12-1.21-1.89-.98-.43.13-.79.43-1.01.82-.16.28-.26.6-.32.92-.06.26-.04.53.1.77.12.21.36.41.6.46.26.06.54.05.77-.1.21-.14.41-.34.46-.6.04-.18.08-.36.15-.53l-.1.24c.04-.09.09-.18.15-.26l-.16.2c.04-.05.09-.1.14-.14l-.2.16s.08-.06.13-.08l-.24.1c.06-.02.11-.04.17-.05l-.27.04c.06,0,.12,0,.18,0l-.27-.04s.1.02.14.04l-.24-.1s.07.03.1.06l-.2-.16s.06.05.08.08l-.16-.2s.03.05.04.08l-.1-.24s.02.05.02.08l-.04-.27s0,.09,0,.14l.04-.27s-.02.09-.04.13l.1-.24c-.03.07-.07.13-.11.18l.16-.2c-.13.16-.28.3-.44.43l.2-.16c-.12.09-.26.18-.4.24l.24-.1c-.1.04-.2.07-.3.09l.27-.04c-.09.01-.18.02-.27,0l.27.04c-.07-.01-.14-.03-.21-.06l.24.1c-.07-.03-.13-.07-.19-.11l.2.16c-.06-.05-.11-.1-.15-.15l.16.2s-.07-.1-.09-.15l.1.24c-.02-.05-.04-.11-.05-.17l.04.27s0-.1,0-.15l-.04.27s.01-.06.02-.09c.16-.5-.18-1.11-.7-1.23-.54-.12-1.06.16-1.23.7h0Z"/>
      <path class="cls-1" d="M57.16,55.73c.21-.16.42-.3.65-.42.11-.06.22-.11.33-.16.14-.07-.13.04.01,0,.06-.02.11-.04.17-.06.24-.09.49-.15.75-.2.06-.01.12-.02.18-.03.09-.02.11-.01,0,0,.14-.01.27-.03.41-.03.24,0,.49,0,.73.02.02,0,.21.02.09,0s.07.01.09.02c.14.02.27.05.4.09.24.06.47.13.69.23-.13-.05-.01,0,.05.03.05.03.11.05.16.08.12.06.24.13.36.21.44.28,1.12.11,1.37-.36.26-.49.11-1.07-.36-1.37-2.13-1.34-5.09-1.27-7.12.25-.42.31-.67.88-.36,1.37.27.41.92.69,1.37.36h0Z"/>
      <path class="cls-1" d="M58.32,54.41c-.01.18.02.37.05.55s.11.35.18.51c.02.05.04.09.07.14.13.21.35.43.61.48.1.02.22.03.3.04s.17.01.26,0c.16-.02.34-.03.5-.09s.31-.12.46-.2c.04-.02.07-.05.11-.07.1-.07.2-.14.29-.23.12-.11.22-.25.31-.38.09-.16.14-.32.14-.5,0-.14-.02-.27-.09-.39-.04-.12-.11-.23-.21-.32-.12-.12-.27-.21-.44-.26-.04-.01-.09-.02-.13-.03-.13-.02-.26-.04-.39-.04-.09,0-.17.01-.25.03-.09.01-.18.02-.27.04-.17.04-.33.11-.48.2-.03.02-.07.04-.1.07-.1.08-.21.15-.3.24-.12.12-.23.26-.31.41-.14.25-.2.56-.1.83.04.11.08.22.15.32.13.19.29.37.5.47.24.12.42.16.68.19s.49-.06.71-.17c.11-.05.2-.13.29-.2.02-.01.03-.03.04-.04.07-.08.13-.16.19-.25.07-.11.11-.24.12-.37.03-.13.02-.27-.02-.4-.03-.13-.09-.24-.18-.34-.07-.11-.16-.19-.28-.26-.23-.12-.51-.18-.77-.1l-.24.1c-.15.09-.27.21-.36.36,0,0,0,.01-.02.02l.16-.2s-.04.05-.06.06l.2-.16s-.05.03-.08.04l.24-.1s-.07.02-.1.03l.27-.04s-.09,0-.13,0l.27.04s-.09-.02-.13-.03l.24.1s-.06-.03-.09-.05l.2.16s-.05-.04-.07-.07l.16.2s-.03-.04-.04-.07l.1.24s-.01-.03-.02-.05l-.1.77s.05-.09.08-.13l-.16.2c.05-.06.11-.12.17-.17l-.2.16c.07-.05.14-.1.22-.13l-.24.1c.09-.04.17-.06.26-.07l-.27.04c.08,0,.16,0,.24,0l-.27-.04s.09.02.13.03l-.6-1.47s-.03.04-.04.06l.16-.2c-.06.07-.12.14-.2.19l.2-.16c-.08.06-.16.11-.25.15l.24-.1c-.09.04-.19.06-.28.08l.27-.04c-.09.01-.18.01-.28,0l.27.04s-.02,0-.04,0l.6.46s-.06-.1-.08-.15l.1.24c-.04-.1-.07-.2-.09-.31l.04.27c0-.08-.01-.16,0-.24,0-.14-.02-.27-.09-.39-.04-.12-.11-.23-.21-.32-.09-.1-.2-.17-.32-.21-.12-.06-.25-.09-.39-.09-.26.01-.53.1-.71.29l-.16.2c-.09.16-.14.32-.14.5h0Z"/>
      <path class="cls-1" d="M47.09,122.23c1.18,5.07,2.37,10.14,3.55,15.21.27,1.17.86,2.63.47,3.83-.26.8-.79,1.45-.73,2.35.11,1.64,1.92,2.6,3.17,1.38,2.8-2.72,2.25-7.45,1.67-10.9-.84-5-1.94-9.96-2.94-14.92-.25-1.26-2.18-.73-1.93.53.82,4.09,1.64,8.17,2.45,12.26.65,3.31,1.75,7.52,0,10.67-.15.28-.4.76-.66.95.34-.25.5-.81.66-1.19.36-.84.48-1.62.38-2.53-.2-1.95-.84-3.9-1.28-5.81-.96-4.12-1.92-8.24-2.88-12.36-.29-1.25-2.22-.72-1.93.53h0Z"/>
      <path class="cls-1" d="M57.74,114.49c1.16,9.47,3.09,18.82,4.91,28.17.14.7.93.83,1.47.6,2.69-1.14,2.79-4.33,2.16-6.77-.83-3.21-1.72-6.35-2.23-9.63-1.05-6.78-1-13.73.1-20.5.21-1.26-1.72-1.8-1.93-.53-1,6.13-1.21,12.36-.51,18.54.34,3.01.87,6,1.61,8.94.56,2.23,2.86,6.93-.21,8.24l1.47.6c-1.79-9.18-3.71-18.35-4.84-27.64-.15-1.26-2.16-1.28-2,0h0Z"/>
      <path class="cls-1" d="M31.79,69.9c-1.83,2.25-1.81,5.38-.32,7.83,1.65,2.71,4.75,4.1,7.71,4.83,1.63.4,3.32.69,4.98.32,1.55-.35,2.9-1.27,4.13-2.23,2.94-2.31,5.78-4.45,9.19-6.04,1.17-.54.15-2.27-1.01-1.73-2.53,1.18-4.91,2.62-7.11,4.34s-4.33,4.06-7.39,3.82c-2.63-.2-5.73-1.16-7.69-2.99-1.76-1.64-2.77-4.66-1.09-6.73.8-.99-.6-2.41-1.41-1.41h0Z"/>
      <path class="cls-1" d="M31.02,71.06c1.57,4.5,6.12,7.03,10.79,6.14,2.63-.5,4.41-2.31,6.71-3.5,2.53-1.31,5.45-1.55,8.24-1.78,1.27-.11,1.28-2.11,0-2-2.22.19-4.49.38-6.64,1.01-2.29.68-4.01,2.04-6.02,3.26-4.04,2.43-9.54.95-11.15-3.67-.42-1.21-2.35-.69-1.93.53h0Z"/>
      <path class="cls-1" d="M61.3,66.95c0,3.86-1.05,7.84-3.89,10.59-1.23,1.2-2.75,2.11-4.42,2.54-1.53.39-3.36.38-4.5-.87-.87-.95-2.28.46-1.41,1.41,3.02,3.31,8.43,1.24,11.25-1.22,3.56-3.09,4.98-7.87,4.97-12.46,0-1.29-2-1.29-2,0h0Z"/>
      <path class="cls-1" d="M60.86,66.21c-1.19,2.64-2.72,5.13-4.59,7.34-.35.41-.4,1.01,0,1.41.36.36,1.06.41,1.41,0,1.98-2.35,3.64-4.94,4.9-7.75.22-.49.14-1.08-.36-1.37-.43-.25-1.15-.14-1.37.36h0Z"/>
      <path class="cls-1" d="M59.06,70.46c-.5-.16-1.01-.31-1.51-.47-.24-.08-.55-.03-.77.1s-.41.36-.46.6c-.06.26-.05.54.1.77s.34.38.6.46c.5.16,1.01.31,1.51.47.24.08.55.03.77-.1s.41-.36.46-.6c.06-.26.05-.54-.1-.77s-.34-.38-.6-.46h0Z"/>
      <path class="cls-1" d="M45.96,73.12c-1.52-1.1-3.42-1.51-5.27-1.49-1.6.02-3.61.16-4.9,1.23-.72.6-1.16,1.55-.59,2.41.43.65,1.36,1.13,2.03,1.48.84.43,1.76.64,2.67.32.82-.29,1.47-.87,2.08-1.48.91-.91-.5-2.32-1.41-1.41-.46.46-1.08,1.17-1.81,1.04-.39-.07-.76-.31-1.08-.51-.19-.11-.37-.23-.55-.35-.01,0-.23-.19-.27-.19-.02,0,.02-.02.03,0v.53c.07-.47.84-.66,1.24-.76.75-.18,1.53-.26,2.3-.29,1.62-.06,3.2.25,4.53,1.21.44.32,1.11.08,1.37-.36.29-.5.08-1.05-.36-1.37h0Z"/>
      <path class="cls-1" d="M51.3,63.97c2.06,1.05,4.57,1.01,6.57-.16.45-.26.65-.91.36-1.37s-.89-.64-1.37-.36c-.1.06-.21.12-.31.17-.03.02-.37.17-.17.09-.19.08-.39.15-.59.2-.23.07-.46.11-.7.15q-.12.02,0,0c-.06,0-.12.01-.18.02-.1,0-.21.01-.31.02-.22,0-.45,0-.67-.02-.06,0-.12-.01-.18-.02q.12.02,0,0c-.1-.02-.21-.04-.31-.06-.22-.05-.43-.11-.64-.18-.04-.01-.38-.15-.18-.06-.11-.05-.22-.1-.32-.15-.47-.24-1.11-.14-1.37.36-.24.46-.14,1.11.36,1.37h0Z"/>
    </g>
  </g>
</svg>