<?xml version="1.0" encoding="UTF-8"?>
<svg id="_レイヤー_2" data-name="レイヤー 2" xmlns="http://www.w3.org/2000/svg" viewBox="0 0 386.24 59.85">
  <defs>
    <style>
      .cls-1 {
        fill: none;
        stroke: #e52e8e;
        stroke-miterlimit: 10;
      }
    </style>
  </defs>
  <g id="text">
    <g>
      <path class="cls-1" d="M22.39,43.89h-9.6v12.8H.5V14.71h21.89v6.4h4.8v16.38h-4.8v6.4ZM14.9,24.69h-2.11v9.22h6.91v-2.82h-4.8v-6.4Z"/>
      <path class="cls-1" d="M50.56,36.78h-2.11v12.8h-12.29V7.59h21.89v6.4h4.8v16.38h-4.8v2.82h4.8v16.38h-7.49v-6.4h-4.8v-6.4ZM50.56,17.58h-2.11v9.22h6.91v-2.82h-4.8v-6.4Z"/>
      <path class="cls-1" d="M94.53,23.76h4.8v29.18h-4.8v6.4h-17.09v-6.4h-4.8v-29.18h4.8v-6.4h17.09v6.4ZM87.04,27.35h-2.11v22.02h6.91v-15.62h-4.8v-6.4Z"/>
      <path class="cls-1" d="M123.86,25.87h12.29v16.38h-4.8v6.4h-17.09v-6.4h-4.8V13.07h4.8v-6.4h17.09v6.4h4.8v9.98h-7.49v-6.4h-6.91v22.02h6.91v-2.82h-4.8v-9.98Z"/>
      <path class="cls-1" d="M159.91,43.74h-2.11v12.8h-12.29V14.55h21.89v6.4h4.8v16.38h-4.8v2.82h4.8v16.38h-7.49v-6.4h-4.8v-6.4ZM159.91,24.54h-2.11v9.22h6.91v-2.82h-4.8v-6.4Z"/>
      <path class="cls-1" d="M194.42,29.68h-6.91v12.8h-7.49V6.9h4.8V.5h17.09v6.4h4.8v35.58h-12.29v-12.8ZM194.42,10.48h-6.91v9.22h6.91v-9.22Z"/>
      <path class="cls-1" d="M225.62,32.8h-2.11v19.2h-7.49V10.01h12.29v12.8h2.11v-6.4h4.8v-6.4h7.49v41.98h-7.49v-25.6h-2.11v19.2h-7.49v-12.8Z"/>
      <path class="cls-1" d="M260.99,26.88h-2.11v19.2h-7.49V4.09h12.29v12.8h2.11v-6.4h4.8v-6.4h7.49v41.98h-7.49v-25.6h-2.11v19.2h-7.49v-12.8Z"/>
      <path class="cls-1" d="M309.28,25.47h-4.8v22.02h4.8v9.98h-21.89v-9.98h4.8v-22.02h-4.8v-9.98h21.89v9.98Z"/>
      <path class="cls-1" d="M332.46,29.26h-2.11v19.2h-7.49V6.48h7.49v6.4h4.8v6.4h4.8v6.4h2.11V6.48h7.49v41.98h-7.49v-6.4h-4.8v-6.4h-4.8v-6.4Z"/>
      <path class="cls-1" d="M373.46,35.82h12.29v16.38h-4.8v6.4h-17.09v-6.4h-4.8v-29.18h4.8v-6.4h17.09v6.4h4.8v9.98h-7.49v-6.4h-6.91v22.02h6.91v-2.82h-4.8v-9.98Z"/>
    </g>
  </g>
</svg>