<?xml version="1.0" encoding="UTF-8"?>
<svg id="_レイヤー_2" data-name="レイヤー 2" xmlns="http://www.w3.org/2000/svg" viewBox="0 0 150 150">
  <defs>
    <style>
      .cls-1 {
        fill: #01c8fe;
      }

      .cls-2 {
        fill: #d6d6d6;
      }

      .cls-3 {
        fill: #001d23;
      }

      .cls-4 {
        fill: #e52e8e;
      }
    </style>
  </defs>
  <g id="text">
    <g>
      <g>
        <path class="cls-4" d="M94.91,20.23c10.38,3.77,19.37,10.4,26.04,18.94l13.55-9.84c-8.74-11.35-20.65-20.13-34.42-25.01l-5.18,15.92Z"/>
        <path class="cls-4" d="M150,77h-16.75c-.38,11.32-3.98,21.82-9.93,30.61l13.55,9.83c7.96-11.56,12.74-25.45,13.13-40.45Z"/>
        <path class="cls-2" d="M0,73h16.75c.38-11.32,3.98-21.82,9.93-30.61l-13.55-9.83C5.18,44.11.39,58.01,0,73Z"/>
        <path class="cls-2" d="M26.68,107.61c-5.95-8.79-9.55-19.29-9.93-30.61H0c.39,14.99,5.18,28.89,13.13,40.45l13.55-9.83Z"/>
        <path class="cls-4" d="M123.32,42.39c5.95,8.79,9.55,19.29,9.93,30.61h16.75c-.39-14.99-5.18-28.89-13.13-40.45l-13.55,9.83Z"/>
        <path class="cls-4" d="M91.1,131c-5.12,1.47-10.51,2.27-16.1,2.27s-10.99-.8-16.1-2.27l-5.18,15.93c6.75,1.99,13.89,3.08,21.28,3.08s14.53-1.09,21.28-3.08l-5.18-15.93Z"/>
        <path class="cls-4" d="M120.95,110.84c-6.67,8.53-15.66,15.17-26.04,18.94l5.18,15.92c13.77-4.88,25.68-13.66,34.42-25.01l-13.55-9.84Z"/>
        <path class="cls-4" d="M58.9,19c5.12-1.47,10.51-2.27,16.1-2.27s10.99.8,16.1,2.27l5.18-15.93c-6.75-1.99-13.89-3.08-21.28-3.08s-14.53,1.09-21.28,3.08l5.18,15.93Z"/>
        <path class="cls-2" d="M29.05,39.16c6.67-8.53,15.66-15.17,26.04-18.94l-5.18-15.92c-13.77,4.88-25.68,13.66-34.42,25.01l13.55,9.84Z"/>
        <path class="cls-2" d="M55.09,129.77c-10.38-3.77-19.37-10.4-26.04-18.94l-13.55,9.84c8.74,11.35,20.65,20.13,34.42,25.01l5.18-15.92Z"/>
      </g>
      <g>
        <rect class="cls-3" x="50" y="50" width="50" height="50" rx="10" ry="10"/>
        <rect class="cls-3" x="52.31" y="52.39" width="45.37" height="45.23" rx="10" ry="10"/>
        <path class="cls-1" d="M62.49,64.35c0-.18.03-.24.18-.24,1.21-.03,3.53-.09,5.76-.09,5.94,0,8,3.39,8,6.7,0,4.91-3.68,7-8.2,7h-1.67v5.96c0,.15-.06.24-.23.24h-3.62c-.15,0-.2-.09-.2-.24v-19.33ZM66.55,73.98c.5.03.82.03,1.65.03,2.32,0,4.17-.73,4.17-3.21,0-1.91-1.26-3.12-3.82-3.12-.94,0-1.74.03-2,.06v6.24Z"/>
        <path class="cls-1" d="M83.98,71.92c-1.38,0-1.82.52-1.82,1.03s.38.91,2.08,1.58c3.56,1.33,4.67,2.76,4.67,4.91,0,2.88-2.18,4.79-6.06,4.79-1.79,0-3.36-.33-4.26-.85-.13-.06-.21-.19-.21-.33v-3.27c0-.18.12-.27.23-.18,1.35.88,3,1.21,4.32,1.21s2-.39,2-1.03c0-.58-.5-1-2.23-1.67-3.32-1.27-4.41-2.73-4.41-4.91,0-2.36,1.85-4.64,5.73-4.64,1.74,0,3.09.24,3.82.61.14.07.22.23.2.39v3.03c0,.18-.12.3-.29.21-.96-.51-2.46-.87-3.78-.87Z"/>
      </g>
    </g>
  </g>
</svg>