<?xml version="1.0" encoding="UTF-8"?>
<svg id="_レイヤー_2" data-name="レイヤー 2" xmlns="http://www.w3.org/2000/svg" viewBox="0 0 65.62 65.62">
  <defs>
    <style>
      .cls-1 {
        fill: #e52e8e;
      }
    </style>
  </defs>
  <g id="text">
    <g>
      <rect class="cls-1" x="27.34" width="5.47" height="5.47"/>
      <rect class="cls-1" x="32.81" width="5.47" height="5.47"/>
      <rect class="cls-1" x="27.34" y="5.47" width="5.47" height="5.47"/>
      <rect class="cls-1" x="32.81" y="5.47" width="5.47" height="5.47"/>
      <rect class="cls-1" x="38.28" y="5.47" width="5.47" height="5.47"/>
      <rect class="cls-1" x="27.34" y="10.94" width="5.47" height="5.47"/>
      <rect class="cls-1" x="32.81" y="10.94" width="5.47" height="5.47"/>
      <rect class="cls-1" x="38.28" y="10.94" width="5.47" height="5.47"/>
      <rect class="cls-1" x="43.75" y="10.94" width="5.47" height="5.47"/>
      <rect class="cls-1" y="16.41" width="5.47" height="5.47"/>
      <rect class="cls-1" x="5.47" y="16.41" width="5.47" height="5.47"/>
      <rect class="cls-1" x="10.94" y="16.41" width="5.47" height="5.47"/>
      <rect class="cls-1" x="16.41" y="16.41" width="5.47" height="5.47"/>
      <rect class="cls-1" x="21.88" y="16.41" width="5.47" height="5.47"/>
      <rect class="cls-1" x="27.34" y="16.41" width="5.47" height="5.47"/>
      <rect class="cls-1" x="32.81" y="16.41" width="5.47" height="5.47"/>
      <rect class="cls-1" x="38.28" y="16.41" width="5.47" height="5.47"/>
      <rect class="cls-1" x="43.75" y="16.41" width="5.47" height="5.47"/>
      <rect class="cls-1" x="49.22" y="16.41" width="5.47" height="5.47"/>
      <rect class="cls-1" y="21.88" width="5.47" height="5.47"/>
      <rect class="cls-1" x="5.47" y="21.88" width="5.47" height="5.47"/>
      <rect class="cls-1" x="10.94" y="21.88" width="5.47" height="5.47"/>
      <rect class="cls-1" x="16.41" y="21.88" width="5.47" height="5.47"/>
      <rect class="cls-1" x="21.88" y="21.88" width="5.47" height="5.47"/>
      <rect class="cls-1" x="27.34" y="21.88" width="5.47" height="5.47"/>
      <rect class="cls-1" x="32.81" y="21.88" width="5.47" height="5.47"/>
      <rect class="cls-1" x="38.28" y="21.88" width="5.47" height="5.47"/>
      <rect class="cls-1" x="43.75" y="21.88" width="5.47" height="5.47"/>
      <rect class="cls-1" x="49.22" y="21.88" width="5.47" height="5.47"/>
      <rect class="cls-1" x="54.69" y="21.88" width="5.47" height="5.47"/>
      <rect class="cls-1" y="27.34" width="5.47" height="5.47"/>
      <rect class="cls-1" x="5.47" y="27.34" width="5.47" height="5.47"/>
      <rect class="cls-1" x="10.94" y="27.34" width="5.47" height="5.47"/>
      <rect class="cls-1" x="16.41" y="27.34" width="5.47" height="5.47"/>
      <rect class="cls-1" x="21.88" y="27.34" width="5.47" height="5.47"/>
      <rect class="cls-1" x="27.34" y="27.34" width="5.47" height="5.47"/>
      <rect class="cls-1" x="32.81" y="27.34" width="5.47" height="5.47"/>
      <rect class="cls-1" x="38.28" y="27.34" width="5.47" height="5.47"/>
      <rect class="cls-1" x="43.75" y="27.34" width="5.47" height="5.47"/>
      <rect class="cls-1" x="49.22" y="27.34" width="5.47" height="5.47"/>
      <rect class="cls-1" x="54.69" y="27.34" width="5.47" height="5.47"/>
      <rect class="cls-1" x="60.16" y="27.34" width="5.47" height="5.47"/>
      <rect class="cls-1" y="32.81" width="5.47" height="5.47"/>
      <rect class="cls-1" x="5.47" y="32.81" width="5.47" height="5.47"/>
      <rect class="cls-1" x="10.94" y="32.81" width="5.47" height="5.47"/>
      <rect class="cls-1" x="16.41" y="32.81" width="5.47" height="5.47"/>
      <rect class="cls-1" x="21.88" y="32.81" width="5.47" height="5.47"/>
      <rect class="cls-1" x="27.34" y="32.81" width="5.47" height="5.47"/>
      <rect class="cls-1" x="32.81" y="32.81" width="5.47" height="5.47"/>
      <rect class="cls-1" x="38.28" y="32.81" width="5.47" height="5.47"/>
      <rect class="cls-1" x="43.75" y="32.81" width="5.47" height="5.47"/>
      <rect class="cls-1" x="49.22" y="32.81" width="5.47" height="5.47"/>
      <rect class="cls-1" x="54.69" y="32.81" width="5.47" height="5.47"/>
      <rect class="cls-1" x="60.16" y="32.81" width="5.47" height="5.47"/>
      <rect class="cls-1" y="38.28" width="5.47" height="5.47"/>
      <rect class="cls-1" x="5.47" y="38.28" width="5.47" height="5.47"/>
      <rect class="cls-1" x="10.94" y="38.28" width="5.47" height="5.47"/>
      <rect class="cls-1" x="16.41" y="38.28" width="5.47" height="5.47"/>
      <rect class="cls-1" x="21.88" y="38.28" width="5.47" height="5.47"/>
      <rect class="cls-1" x="27.34" y="38.28" width="5.47" height="5.47"/>
      <rect class="cls-1" x="32.81" y="38.28" width="5.47" height="5.47"/>
      <rect class="cls-1" x="38.28" y="38.28" width="5.47" height="5.47"/>
      <rect class="cls-1" x="43.75" y="38.28" width="5.47" height="5.47"/>
      <rect class="cls-1" x="49.22" y="38.28" width="5.47" height="5.47"/>
      <rect class="cls-1" x="54.69" y="38.28" width="5.47" height="5.47"/>
      <rect class="cls-1" y="43.75" width="5.47" height="5.47"/>
      <rect class="cls-1" x="5.47" y="43.75" width="5.47" height="5.47"/>
      <rect class="cls-1" x="10.94" y="43.75" width="5.47" height="5.47"/>
      <rect class="cls-1" x="16.41" y="43.75" width="5.47" height="5.47"/>
      <rect class="cls-1" x="21.88" y="43.75" width="5.47" height="5.47"/>
      <rect class="cls-1" x="27.34" y="43.75" width="5.47" height="5.47"/>
      <rect class="cls-1" x="32.81" y="43.75" width="5.47" height="5.47"/>
      <rect class="cls-1" x="38.28" y="43.75" width="5.47" height="5.47"/>
      <rect class="cls-1" x="43.75" y="43.75" width="5.47" height="5.47"/>
      <rect class="cls-1" x="49.22" y="43.75" width="5.47" height="5.47"/>
      <rect class="cls-1" x="27.34" y="49.22" width="5.47" height="5.47"/>
      <rect class="cls-1" x="32.81" y="49.22" width="5.47" height="5.47"/>
      <rect class="cls-1" x="38.28" y="49.22" width="5.47" height="5.47"/>
      <rect class="cls-1" x="43.75" y="49.22" width="5.47" height="5.47"/>
      <rect class="cls-1" x="27.34" y="54.69" width="5.47" height="5.47"/>
      <rect class="cls-1" x="32.81" y="54.69" width="5.47" height="5.47"/>
      <rect class="cls-1" x="38.28" y="54.69" width="5.47" height="5.47"/>
      <rect class="cls-1" x="27.34" y="60.16" width="5.47" height="5.47"/>
      <rect class="cls-1" x="32.81" y="60.16" width="5.47" height="5.47"/>
    </g>
  </g>
</svg>