<?xml version="1.0" encoding="UTF-8"?>
<svg id="_レイヤー_2" data-name="レイヤー 2" xmlns="http://www.w3.org/2000/svg" viewBox="0 0 206.82 80.03">
  <defs>
    <style>
      .cls-1 {
        fill: #e52e8e;
      }
    </style>
  </defs>
  <g id="img">
    <path class="cls-1" d="M30.89,22.65c-5.59-2.85-12.18-1.85-17.4,1.35-5.84,3.58-9.37,9.66-11.24,16.11-1,3.45-1.56,7.01-1.92,10.57s-.75,7.62.97,11.02c1.55,3.08,4.58,5.25,7.38,7.13s6.04,3.63,9.29,5.01c13.18,5.61,27.87,6.52,42.02,6.08,16.82-.51,33.62-2.5,50.23-5.07s33.75-5.63,50.29-9.83c8.1-2.05,16.13-4.47,23.89-7.57,5.76-2.3,11.42-5.35,15.88-9.73,4.19-4.11,7.09-9.64,6.48-15.64-.65-6.41-4.95-11.81-10.25-15.19-6.34-4.06-14.1-5.05-21.47-5.35-8.55-.35-17.13-.26-25.68-.19-17.51.15-35.01.82-52.48,2.01-8.73.59-17.46,1.31-26.17,2.17-2.22.22-4.44.44-6.66.68-1.96.21-3.99.46-5.95.12-2.09-.37-3.67-1.6-5.2-2.98s-3.15-2.87-4.73-4.31c-3.19-2.91-6.38-5.81-9.57-8.72-.68-.62-1.61-.15-1.71.71-.53,4.82-1.07,9.64-1.6,14.47-.2,1.82-.53,3.54-1.47,5.13-.7,1.19-1.88,2.61-3.36,1.77-1.12-.64-2.13,1.09-1.01,1.73,3.83,2.17,6.61-2.58,7.4-5.71.66-2.6.71-5.42,1.01-8.07.34-3.11.69-6.21,1.03-9.32l-1.71.71c3.13,2.85,6.26,5.7,9.39,8.55,1.53,1.4,3.07,2.8,4.6,4.19,1.31,1.19,2.65,2.39,4.27,3.12,3.38,1.52,7.27.75,10.82.39,4.19-.43,8.38-.83,12.58-1.2,16.7-1.48,33.45-2.48,50.2-3.01,8.42-.27,16.84-.41,25.27-.44s16.09-.2,24.08.41c7.14.55,14.53,2.21,20.02,7.08,4.65,4.12,7.53,10.18,5.99,16.42-1.43,5.78-6.06,10.16-10.88,13.32-5.73,3.76-12.23,6.11-18.7,8.25-15.38,5.09-31.36,8.19-47.27,11.1s-32.84,5.45-49.42,6.89c-14.44,1.26-29.26,2.19-43.63-.28-6.74-1.16-13.4-3.11-19.49-6.26-3-1.55-5.94-3.35-8.53-5.52-1.37-1.14-2.66-2.44-3.46-4.05-.88-1.77-1.04-3.77-1-5.72.27-12.63,4.67-29.31,19.19-31.83,2.95-.51,6-.14,8.68,1.22,1.14.58,2.16-1.14,1.01-1.73h0Z"/>
  </g>
</svg>