<?xml version="1.0" encoding="UTF-8"?>
<svg id="_レイヤー_2" data-name="レイヤー 2" xmlns="http://www.w3.org/2000/svg" viewBox="0 0 252.05 78.31">
  <defs>
    <style>
      .cls-1 {
        fill: #e52e8e;
      }
    </style>
  </defs>
  <g id="img">
    <path class="cls-1" d="M114.64,6.24c-14.78,8.53-32.6,6.99-48.98,6.62-8.35-.19-16.79-.19-25.03,1.37s-15.91,4.93-22.31,10.4c-3.5,2.99-6.56,6.46-9.38,10.1-1.41,1.83-2.77,3.7-4.08,5.6s-2.72,3.77-3.75,5.82c-1.77,3.57-1.42,7.29,1.07,10.41s6.2,5.08,9.81,6.65c17.85,7.78,37.03,11.73,56.35,13.56,19.72,1.87,39.56,1.62,59.34,1.3,9.92-.16,19.84-.35,29.76-.31,10.44.04,20.89.53,31.33.18,18-.61,36.59-4.4,50.2-17.01,5.94-5.5,10.56-12.6,12.35-20.55,1.91-8.5.06-17.35-6.61-23.25-5.81-5.15-13.61-7.58-21.09-9.06-10.08-2-20.44-3-30.7-3.45-10.78-.47-21.59-.18-32.32.88-8.33.82-17.05,2.12-25.32.17-3.88-.92-7.48-2.64-10.39-5.39-.59-.56-1.39-.25-1.67.44-1.92,4.79-7.35,7.81-12.43,6.95-1.26-.21-1.8,1.71-.53,1.93,6.25,1.06,12.53-2.47,14.89-8.35l-1.67.44c5.86,5.53,13.89,6.98,21.69,6.95,9.13-.03,18.21-1.58,27.32-2,10.45-.48,20.94-.24,31.36.71,9.08.83,18.47,1.84,27.18,4.66,7.03,2.28,14.1,6.22,17.3,13.22,3.76,8.23,1.09,18.17-3.47,25.51-9,14.5-25.92,21.68-42.19,24.03-10.21,1.48-20.58,1.36-30.87,1.18-9.78-.18-19.56-.24-29.34-.11-19.41.25-38.83.87-58.24.01-18.92-.83-37.89-3.12-56.03-8.74-4.55-1.41-9.03-3.02-13.42-4.86-3.77-1.58-7.72-3.28-10.55-6.34-1.22-1.32-2.17-2.96-2.31-4.78-.17-2.28.98-4.31,2.18-6.16,2.5-3.85,5.17-7.63,8.09-11.17,5.56-6.74,12.24-12.35,20.53-15.37,7.59-2.77,15.71-3.52,23.74-3.65,16.14-.26,32.9,2.24,48.66-2.36,3.67-1.07,7.21-2.56,10.52-4.47,1.11-.64.11-2.37-1.01-1.73h0Z"/>
  </g>
</svg>